<?xml version="1.0" encoding="utf-8"?>
<!-- Generator: Adobe Illustrator 24.0.1, SVG Export Plug-In . SVG Version: 6.00 Build 0)  -->
<svg version="1.1" xmlns="http://www.w3.org/2000/svg" xmlns:xlink="http://www.w3.org/1999/xlink" x="0px" y="0px"
	 viewBox="0 0 750 500" style="enable-background:new 0 0 750 500;" xml:space="preserve">
<style type="text/css">
	.st0{fill:#F5F5F5;}
	.st1{fill:#EBEBEB;}
	.st2{fill:#FAFAFA;}
	.st3{fill:#E0E0E0;}
	.st4{display:none;}
	.st5{display:inline;fill:#EBEBEB;}
	.st6{fill:#263238;}
	.st7{fill:#EA2027;}
	.st8{fill:#FFFFFF;}
	.st9{fill:#E8505B;}
	.st10{opacity:0.6;}
	.st11{font-family:'MyriadPro-Bold';}
	.st12{font-size:17.7582px;}
	.st13{fill:#FFBE9D;}
	.st14{fill:#455A64;}
	.st15{opacity:0.4;}
	.st16{opacity:0.3;}
	.st17{fill:#EB996E;}
	.st18{fill:none;stroke:#263238;stroke-width:0.05;stroke-miterlimit:10;}
</style>
<g id="Background_Complete">
	<g>
		<g>
			<g>
				<g>
					
						<rect x="87.08" y="248.12" transform="matrix(-1 -1.224647e-16 1.224647e-16 -1 278.3227 576.5651)" class="st0" width="104.15" height="80.33"/>
				</g>
			</g>
			<g>
				<g>
					<g>
						<path class="st1" d="M113.18,327.88c0.14,0,0.26-17.91,0.26-39.99c0-22.09-0.12-39.99-0.26-39.99
							c-0.14,0-0.26,17.9-0.26,39.99C112.92,309.98,113.04,327.88,113.18,327.88z"/>
					</g>
				</g>
			</g>
			<g>
				<g>
					
						<rect x="95.92" y="310.16" transform="matrix(-1 -1.224647e-16 1.224647e-16 -1 199.8159 629.3543)" class="st2" width="7.98" height="9.03"/>
				</g>
			</g>
			<g>
				<g>
					<rect x="147.63" y="248.32" class="st1" width="11.83" height="17.14"/>
				</g>
			</g>
			<g>
				<g>
					<rect x="147.63" y="311.07" class="st1" width="11.83" height="17.14"/>
				</g>
			</g>
		</g>
	</g>
	<g>
		<g>
			<g>
				<g>
					<rect x="58.99" y="329.58" class="st1" width="171.94" height="132.61"/>
				</g>
			</g>
			<g>
				<g>
					<g>
						<path class="st3" d="M187.85,461.26c-0.19,0-0.34-29.56-0.34-66.01c0-36.47,0.15-66.02,0.34-66.02
							c0.19,0,0.34,29.55,0.34,66.02C188.19,431.7,188.04,461.26,187.85,461.26z"/>
					</g>
				</g>
			</g>
			<g>
				<g>
					<rect x="203.17" y="432.01" class="st2" width="13.18" height="14.9"/>
				</g>
			</g>
			<g>
				<g>
					<rect x="111.44" y="329.92" class="st3" width="19.53" height="28.3"/>
				</g>
			</g>
			<g>
				<g>
					<rect x="111.44" y="433.5" class="st3" width="19.53" height="28.3"/>
				</g>
			</g>
		</g>
	</g>
	<g>
		<g>
			<g>
				<g>
					<path class="st1" d="M365.26,95.98c0,0.14-1.12,0.26-2.5,0.26c-1.38,0-2.5-0.12-2.5-0.26s1.12-0.26,2.5-0.26
						C364.14,95.72,365.26,95.83,365.26,95.98z"/>
				</g>
			</g>
		</g>
		<g>
			<g>
				<g>
					<path class="st1" d="M375.26,95.98c0,0.14-1.12,0.26-2.5,0.26c-1.38,0-2.5-0.12-2.5-0.26s1.12-0.26,2.5-0.26
						C374.14,95.72,375.26,95.83,375.26,95.98z"/>
				</g>
			</g>
		</g>
		<g>
			<g>
				<g>
					<path class="st1" d="M385.26,95.98c0,0.14-1.12,0.26-2.5,0.26c-1.38,0-2.5-0.12-2.5-0.26s1.12-0.26,2.5-0.26
						C384.14,95.72,385.26,95.83,385.26,95.98z"/>
				</g>
			</g>
		</g>
		<g>
			<g>
				<g>
					<path class="st1" d="M395.26,95.98c0,0.14-1.12,0.26-2.5,0.26c-1.38,0-2.5-0.12-2.5-0.26s1.12-0.26,2.5-0.26
						C394.14,95.72,395.26,95.83,395.26,95.98z"/>
				</g>
			</g>
		</g>
		<g>
			<g>
				<g>
					<path class="st1" d="M405.26,95.98c0,0.14-1.12,0.26-2.5,0.26c-1.38,0-2.5-0.12-2.5-0.26s1.12-0.26,2.5-0.26
						C404.14,95.72,405.26,95.83,405.26,95.98z"/>
				</g>
			</g>
		</g>
		<g>
			<g>
				<g>
					<path class="st1" d="M415.26,95.98c0,0.14-1.12,0.26-2.5,0.26c-1.38,0-2.5-0.12-2.5-0.26s1.12-0.26,2.5-0.26
						C414.14,95.72,415.26,95.83,415.26,95.98z"/>
				</g>
			</g>
		</g>
		<g>
			<g>
				<g>
					<path class="st1" d="M425.26,95.98c0,0.14-1.12,0.26-2.5,0.26c-1.38,0-2.5-0.12-2.5-0.26s1.12-0.26,2.5-0.26
						C424.14,95.72,425.26,95.83,425.26,95.98z"/>
				</g>
			</g>
		</g>
		<g>
			<g>
				<g>
					<path class="st1" d="M435.26,95.98c0,0.14-1.12,0.26-2.5,0.26c-1.38,0-2.5-0.12-2.5-0.26s1.12-0.26,2.5-0.26
						C434.14,95.72,435.26,95.83,435.26,95.98z"/>
				</g>
			</g>
		</g>
		<g>
			<g>
				<g>
					<path class="st1" d="M445.26,95.98c0,0.14-1.12,0.26-2.5,0.26c-1.38,0-2.5-0.12-2.5-0.26s1.12-0.26,2.5-0.26
						C444.14,95.72,445.26,95.83,445.26,95.98z"/>
				</g>
			</g>
		</g>
		<g>
			<g>
				<g>
					<path class="st1" d="M455.26,95.98c0,0.14-1.12,0.26-2.5,0.26c-1.38,0-2.5-0.12-2.5-0.26s1.12-0.26,2.5-0.26
						C454.14,95.72,455.26,95.83,455.26,95.98z"/>
				</g>
			</g>
		</g>
		<g>
			<g>
				<g>
					<path class="st1" d="M465.26,95.98c0,0.14-1.12,0.26-2.5,0.26c-1.38,0-2.5-0.12-2.5-0.26s1.12-0.26,2.5-0.26
						C464.14,95.72,465.26,95.83,465.26,95.98z"/>
				</g>
			</g>
		</g>
		<g>
			<g>
				<g>
					<path class="st1" d="M475.26,95.98c0,0.14-1.12,0.26-2.5,0.26c-1.38,0-2.5-0.12-2.5-0.26s1.12-0.26,2.5-0.26
						C474.14,95.72,475.26,95.83,475.26,95.98z"/>
				</g>
			</g>
		</g>
		<g>
			<g>
				<g>
					<path class="st1" d="M485.26,95.98c0,0.14-1.12,0.26-2.5,0.26c-1.38,0-2.5-0.12-2.5-0.26s1.12-0.26,2.5-0.26
						C484.14,95.72,485.26,95.83,485.26,95.98z"/>
				</g>
			</g>
		</g>
		<g>
			<g>
				<g>
					<path class="st1" d="M495.26,95.98c0,0.14-1.12,0.26-2.5,0.26c-1.38,0-2.5-0.12-2.5-0.26s1.12-0.26,2.5-0.26
						C494.14,95.72,495.26,95.83,495.26,95.98z"/>
				</g>
			</g>
		</g>
		<g>
			<g>
				<g>
					<path class="st1" d="M505.26,95.98c0,0.14-1.12,0.26-2.5,0.26c-1.38,0-2.5-0.12-2.5-0.26s1.12-0.26,2.5-0.26
						C504.14,95.72,505.26,95.83,505.26,95.98z"/>
				</g>
			</g>
		</g>
		<g>
			<g>
				<g>
					<path class="st1" d="M515.26,95.98c0,0.14-1.12,0.26-2.5,0.26c-1.38,0-2.5-0.12-2.5-0.26s1.12-0.26,2.5-0.26
						C514.14,95.72,515.26,95.83,515.26,95.98z"/>
				</g>
			</g>
		</g>
		<g>
			<g>
				<g>
					<path class="st1" d="M525.26,95.98c0,0.14-1.12,0.26-2.5,0.26c-1.38,0-2.5-0.12-2.5-0.26s1.12-0.26,2.5-0.26
						C524.14,95.72,525.26,95.83,525.26,95.98z"/>
				</g>
			</g>
		</g>
		<g>
			<g>
				<g>
					<path class="st1" d="M535.26,95.98c0,0.14-1.12,0.26-2.5,0.26c-1.38,0-2.5-0.12-2.5-0.26s1.12-0.26,2.5-0.26
						C534.14,95.72,535.26,95.83,535.26,95.98z"/>
				</g>
			</g>
		</g>
		<g>
			<g>
				<g>
					<path class="st1" d="M545.26,95.98c0,0.14-1.12,0.26-2.5,0.26c-1.38,0-2.5-0.12-2.5-0.26s1.12-0.26,2.5-0.26
						C544.14,95.72,545.26,95.83,545.26,95.98z"/>
				</g>
			</g>
		</g>
		<g>
			<g>
				<g>
					<path class="st1" d="M555.26,95.98c0,0.14-1.12,0.26-2.5,0.26c-1.38,0-2.5-0.12-2.5-0.26s1.12-0.26,2.5-0.26
						C554.14,95.72,555.26,95.83,555.26,95.98z"/>
				</g>
			</g>
		</g>
		<g>
			<g>
				<g>
					<path class="st1" d="M565.26,95.98c0,0.14-1.12,0.26-2.5,0.26c-1.38,0-2.5-0.12-2.5-0.26s1.12-0.26,2.5-0.26
						C564.14,95.72,565.26,95.83,565.26,95.98z"/>
				</g>
			</g>
		</g>
		<g>
			<g>
				<g>
					<path class="st1" d="M575.26,95.98c0,0.14-1.12,0.26-2.5,0.26c-1.38,0-2.5-0.12-2.5-0.26s1.12-0.26,2.5-0.26
						C574.14,95.72,575.26,95.83,575.26,95.98z"/>
				</g>
			</g>
		</g>
		<g>
			<g>
				<g>
					<path class="st1" d="M585.26,95.98c0,0.14-1.12,0.26-2.5,0.26c-1.38,0-2.5-0.12-2.5-0.26s1.12-0.26,2.5-0.26
						C584.14,95.72,585.26,95.83,585.26,95.98z"/>
				</g>
			</g>
		</g>
		<g>
			<g>
				<g>
					<path class="st1" d="M587.82,103.41c-0.14,0-0.26-1.12-0.26-2.5c0-1.38,0.12-2.5,0.26-2.5c0.14,0,0.26,1.12,0.26,2.5
						C588.08,102.29,587.97,103.41,587.82,103.41z"/>
				</g>
			</g>
		</g>
		<g>
			<g>
				<g>
					<path class="st1" d="M587.82,113.41c-0.14,0-0.26-1.12-0.26-2.5c0-1.38,0.12-2.5,0.26-2.5c0.14,0,0.26,1.12,0.26,2.5
						C588.08,112.29,587.97,113.41,587.82,113.41z"/>
				</g>
			</g>
		</g>
		<g>
			<g>
				<g>
					<path class="st1" d="M587.82,123.41c-0.14,0-0.26-1.12-0.26-2.5c0-1.38,0.12-2.5,0.26-2.5c0.14,0,0.26,1.12,0.26,2.5
						C588.08,122.29,587.97,123.41,587.82,123.41z"/>
				</g>
			</g>
		</g>
		<g>
			<g>
				<g>
					<path class="st1" d="M587.82,133.41c-0.14,0-0.26-1.12-0.26-2.5c0-1.38,0.12-2.5,0.26-2.5c0.14,0,0.26,1.12,0.26,2.5
						C588.08,132.29,587.97,133.41,587.82,133.41z"/>
				</g>
			</g>
		</g>
		<g>
			<g>
				<g>
					<path class="st1" d="M587.82,143.41c-0.14,0-0.26-1.12-0.26-2.5c0-1.38,0.12-2.5,0.26-2.5c0.14,0,0.26,1.12,0.26,2.5
						C588.08,142.29,587.97,143.41,587.82,143.41z"/>
				</g>
			</g>
		</g>
		<g>
			<g>
				<g>
					<path class="st1" d="M589.77,151.46c0,0.12-0.83,0.23-1.95,0.25l-0.25,0.01l0-0.26c0-0.19,0-0.37-0.01-0.55
						c0-1.38,0.12-2.5,0.26-2.5c0.14,0,0.26,1.12,0.26,2.5c0,0.18,0,0.36-0.01,0.55l-0.25-0.25
						C588.94,151.24,589.77,151.34,589.77,151.46z"/>
				</g>
			</g>
		</g>
		<g>
			<g>
				<g>
					<path class="st1" d="M599.77,151.46c0,0.14-1.12,0.26-2.5,0.26c-1.38,0-2.5-0.12-2.5-0.26c0-0.14,1.12-0.26,2.5-0.26
						C598.65,151.2,599.77,151.32,599.77,151.46z"/>
				</g>
			</g>
		</g>
		<g>
			<g>
				<g>
					<path class="st1" d="M609.77,151.46c0,0.14-1.12,0.26-2.5,0.26c-1.38,0-2.5-0.12-2.5-0.26c0-0.14,1.12-0.26,2.5-0.26
						C608.65,151.2,609.77,151.32,609.77,151.46z"/>
				</g>
			</g>
		</g>
		<g>
			<g>
				<g>
					<path class="st1" d="M619.77,151.46c0,0.14-1.12,0.26-2.5,0.26c-1.38,0-2.5-0.12-2.5-0.26c0-0.14,1.12-0.26,2.5-0.26
						C618.65,151.2,619.77,151.32,619.77,151.46z"/>
				</g>
			</g>
		</g>
		<g>
			<g>
				<g>
					<path class="st1" d="M629.77,151.46c0,0.14-1.12,0.26-2.5,0.26c-1.38,0-2.5-0.12-2.5-0.26c0-0.14,1.12-0.26,2.5-0.26
						C628.65,151.2,629.77,151.32,629.77,151.46z"/>
				</g>
			</g>
		</g>
		<g>
			<g>
				<g>
					<path class="st1" d="M639.77,151.46c0,0.14-1.12,0.26-2.5,0.26c-1.38,0-2.5-0.12-2.5-0.26c0-0.14,1.12-0.26,2.5-0.26
						C638.65,151.2,639.77,151.32,639.77,151.46z"/>
				</g>
			</g>
		</g>
		<g>
			<g>
				<g>
					<path class="st1" d="M649.77,151.46c0,0.14-1.12,0.26-2.5,0.26c-1.38,0-2.5-0.12-2.5-0.26c0-0.14,1.12-0.26,2.5-0.26
						C648.65,151.2,649.77,151.32,649.77,151.46z"/>
				</g>
			</g>
		</g>
		<g>
			<g>
				<g>
					<path class="st1" d="M659.77,151.46c0,0.14-1.12,0.26-2.5,0.26c-1.38,0-2.5-0.12-2.5-0.26c0-0.14,1.12-0.26,2.5-0.26
						C658.65,151.2,659.77,151.32,659.77,151.46z"/>
				</g>
			</g>
		</g>
		<g>
			<g>
				<g>
					<path class="st1" d="M669.77,151.46c0,0.14-1.12,0.26-2.5,0.26c-1.38,0-2.5-0.12-2.5-0.26c0-0.14,1.12-0.26,2.5-0.26
						C668.65,151.2,669.77,151.32,669.77,151.46z"/>
				</g>
			</g>
		</g>
		<g>
			<g>
				<g>
					<path class="st1" d="M673.66,157.58c-0.14,0-0.26-1.12-0.26-2.5c0-1.38,0.12-2.5,0.26-2.5s0.26,1.12,0.26,2.5
						C673.92,156.46,673.8,157.58,673.66,157.58z"/>
				</g>
			</g>
		</g>
		<g>
			<g>
				<g>
					<path class="st1" d="M673.66,167.58c-0.14,0-0.26-1.12-0.26-2.5c0-1.38,0.12-2.5,0.26-2.5s0.26,1.12,0.26,2.5
						C673.92,166.46,673.8,167.58,673.66,167.58z"/>
				</g>
			</g>
		</g>
		<g>
			<g>
				<g>
					<path class="st1" d="M673.66,177.58c-0.14,0-0.26-1.12-0.26-2.5c0-1.38,0.12-2.5,0.26-2.5s0.26,1.12,0.26,2.5
						C673.92,176.46,673.8,177.58,673.66,177.58z"/>
				</g>
			</g>
		</g>
		<g>
			<g>
				<g>
					<path class="st1" d="M673.66,187.58c-0.14,0-0.26-1.12-0.26-2.5c0-1.38,0.12-2.5,0.26-2.5s0.26,1.12,0.26,2.5
						C673.92,186.46,673.8,187.58,673.66,187.58z"/>
				</g>
			</g>
		</g>
		<g>
			<g>
				<g>
					<path class="st1" d="M673.66,197.58c-0.14,0-0.26-1.12-0.26-2.5c0-1.38,0.12-2.5,0.26-2.5s0.26,1.12,0.26,2.5
						C673.92,196.46,673.8,197.58,673.66,197.58z"/>
				</g>
			</g>
		</g>
		<g>
			<g>
				<g>
					<path class="st1" d="M673.66,207.58c-0.14,0-0.26-1.12-0.26-2.5c0-1.38,0.12-2.5,0.26-2.5s0.26,1.12,0.26,2.5
						C673.92,206.46,673.8,207.58,673.66,207.58z"/>
				</g>
			</g>
		</g>
		<g>
			<g>
				<g>
					<path class="st1" d="M673.66,217.58c-0.14,0-0.26-1.12-0.26-2.5c0-1.38,0.12-2.5,0.26-2.5s0.26,1.12,0.26,2.5
						C673.92,216.46,673.8,217.58,673.66,217.58z"/>
				</g>
			</g>
		</g>
		<g>
			<g>
				<g>
					<path class="st1" d="M673.66,227.58c-0.14,0-0.26-1.12-0.26-2.5c0-1.38,0.12-2.5,0.26-2.5s0.26,1.12,0.26,2.5
						C673.92,226.46,673.8,227.58,673.66,227.58z"/>
				</g>
			</g>
		</g>
		<g>
			<g>
				<g>
					<path class="st1" d="M673.66,237.58c-0.14,0-0.26-1.12-0.26-2.5c0-1.38,0.12-2.5,0.26-2.5s0.26,1.12,0.26,2.5
						C673.92,236.46,673.8,237.58,673.66,237.58z"/>
				</g>
			</g>
		</g>
		<g>
			<g>
				<g>
					<path class="st1" d="M673.66,247.58c-0.14,0-0.26-1.12-0.26-2.5c0-1.38,0.12-2.5,0.26-2.5s0.26,1.12,0.26,2.5
						C673.92,246.46,673.8,247.58,673.66,247.58z"/>
				</g>
			</g>
		</g>
		<g>
			<g>
				<g>
					<path class="st1" d="M673.66,257.58c-0.14,0-0.26-1.12-0.26-2.5c0-1.38,0.12-2.5,0.26-2.5s0.26,1.12,0.26,2.5
						C673.92,256.46,673.8,257.58,673.66,257.58z"/>
				</g>
			</g>
		</g>
	</g>
	<g>
		<g>
			<g>
				<g>
					<path class="st1" d="M417.73,113.04c0,0-7.76-4.3-15.37,14.06c-7.61,18.36-10.22,28.8-10.22,28.8s-2.09,3.88-4.82,1.67
						c-2.73-2.22-6.75-8.8-10.97-7.23c-4.38,1.63-5.46,6.75-4.03,14.02c1.43,7.28,3.98,23.33,4.21,24.79
						c0.22,1.43-0.43,3.6-2.54,2.39c-2.1-1.21-14.58-13.09-19.86-6.83c-5.28,6.26,2.04,25.87,2.8,28.03c0.76,2.16,0.4,3.14-0.6,3.76
						c-1.01,0.63-4.82-3.76-8.51-6.99c-3.69-3.23-8.53-6.33-11.27-2.47c-2.74,3.87-2.53,19,13.72,42.33l8.24,10.32l13.14-1.77
						c27.9-5.5,38.56-16.24,39.27-20.93c0.71-4.69-4.93-5.82-9.82-6.05c-4.9-0.23-10.69,0.27-10.98-0.88
						c-0.29-1.15,0.13-2.1,2.18-3.13c2.05-1.03,20.93-10.06,21.48-18.23c0.55-8.17-16.68-8.29-19.03-8.88
						c-2.35-0.59-1.31-2.61-0.16-3.48c1.17-0.89,14.16-10.67,20.24-14.91c6.08-4.24,8.86-8.67,6.84-12.89
						c-1.94-4.06-9.41-2.12-12.91-2.42c-3.5-0.3-2.31-4.54-2.31-4.54s5.38-9.33,12.65-27.82c7.27-18.49-1.52-20.8-1.52-20.8"/>
				</g>
			</g>
		</g>
		<g>
			<g>
				<g>
					<g>
						<path class="st3" d="M358.96,256.96c5.39-13.56,13-32.23,21.47-52.83c8.47-20.59,16.12-39.24,21.59-52.77
							c2.72-6.75,4.93-12.22,6.46-16.03c0.76-1.88,1.35-3.34,1.76-4.36c0.2-0.48,0.36-0.86,0.47-1.13c0.11-0.25,0.17-0.38,0.17-0.38
							s-0.04,0.14-0.13,0.4c-0.1,0.28-0.24,0.66-0.43,1.15c-0.39,1.02-0.96,2.5-1.68,4.39c-1.47,3.81-3.63,9.3-6.33,16.08
							c-5.39,13.56-13,32.23-21.47,52.82c-8.47,20.6-16.13,39.25-21.59,52.78"/>
					</g>
				</g>
			</g>
		</g>
		<g>
			<g>
				<g>
					<g>
						<path class="st3" d="M381.61,159.78c0.03-0.01,0.17,0.3,0.41,0.86c0.24,0.57,0.56,1.39,0.94,2.42
							c0.77,2.06,1.75,4.92,2.77,8.11c0.99,3.14,1.89,5.97,2.58,8.16c0.31,0.97,0.58,1.79,0.79,2.47c0.19,0.58,0.28,0.91,0.25,0.92
							c-0.03,0.01-0.18-0.3-0.42-0.86c-0.24-0.57-0.56-1.4-0.93-2.43c-0.75-2.06-1.69-4.94-2.71-8.13
							c-1.01-3.13-1.93-5.95-2.64-8.14c-0.32-0.97-0.59-1.79-0.81-2.47C381.67,160.12,381.58,159.79,381.61,159.78z"/>
					</g>
				</g>
			</g>
		</g>
		<g>
			<g>
				<g>
					<g>
						<path class="st3" d="M390.59,182.87c-0.04-0.12,5.78-2.41,13-5.11c7.23-2.71,13.12-4.8,13.16-4.69
							c0.04,0.12-5.78,2.41-13,5.11C396.53,180.89,390.63,182.99,390.59,182.87z"/>
					</g>
				</g>
			</g>
		</g>
		<g>
			<g>
				<g>
					<g>
						<path class="st3" d="M376.15,213.91c0-0.03,0.34-0.08,0.97-0.13c0.72-0.06,1.6-0.12,2.64-0.2c2.23-0.17,5.31-0.43,8.69-0.82
							c3.39-0.39,6.44-0.85,8.65-1.2c1.03-0.16,1.9-0.3,2.62-0.41c0.62-0.09,0.96-0.13,0.97-0.1c0.01,0.03-0.33,0.13-0.94,0.27
							c-0.61,0.14-1.5,0.34-2.6,0.55c-2.2,0.43-5.26,0.94-8.65,1.33c-3.4,0.4-6.49,0.6-8.73,0.69c-1.12,0.04-2.03,0.07-2.65,0.06
							C376.5,213.95,376.16,213.94,376.15,213.91z"/>
					</g>
				</g>
			</g>
		</g>
		<g>
			<g>
				<g>
					<g>
						<path class="st3" d="M363.44,194.81c0.03-0.02,0.23,0.23,0.58,0.69c0.35,0.46,0.84,1.14,1.44,1.98
							c1.2,1.68,2.84,4.03,4.62,6.63c1.78,2.6,3.38,4.98,4.51,6.71c0.57,0.86,1.02,1.57,1.32,2.06s0.46,0.77,0.43,0.79
							c-0.03,0.02-0.23-0.23-0.58-0.69c-0.35-0.46-0.84-1.14-1.44-1.98c-1.2-1.68-2.84-4.03-4.62-6.63c-1.78-2.6-3.38-4.97-4.51-6.7
							c-0.57-0.86-1.02-1.57-1.32-2.06C363.57,195.11,363.41,194.83,363.44,194.81z"/>
					</g>
				</g>
			</g>
		</g>
		<g>
			<g>
				<g>
					<g>
						<path class="st3" d="M347.21,220.59c0.03-0.02,0.28,0.3,0.73,0.89c0.49,0.67,1.11,1.52,1.86,2.53
							c1.55,2.15,3.67,5.14,5.99,8.45c2.32,3.32,4.39,6.33,5.88,8.53c0.7,1.05,1.28,1.92,1.74,2.61c0.4,0.62,0.61,0.98,0.59,0.99
							c-0.03,0.02-0.28-0.3-0.73-0.89c-0.49-0.67-1.11-1.52-1.86-2.53c-1.55-2.15-3.67-5.14-5.99-8.45
							c-2.32-3.31-4.39-6.33-5.88-8.53c-0.7-1.05-1.28-1.92-1.74-2.61C347.39,220.96,347.18,220.61,347.21,220.59z"/>
					</g>
				</g>
			</g>
		</g>
		<g>
			<g>
				<g>
					<g>
						<path class="st3" d="M363.75,243.92c0-0.03,0.43-0.1,1.22-0.19c0.87-0.1,2-0.23,3.34-0.38c2.82-0.32,6.71-0.78,11-1.4
							c4.29-0.62,8.15-1.27,10.94-1.77c1.33-0.23,2.44-0.43,3.31-0.58c0.78-0.13,1.22-0.19,1.23-0.16c0.01,0.03-0.42,0.15-1.19,0.33
							c-0.77,0.19-1.89,0.44-3.29,0.72c-2.78,0.57-6.65,1.28-10.94,1.9c-4.29,0.62-8.2,1.03-11.03,1.27
							c-1.42,0.12-2.56,0.2-3.36,0.24C364.19,243.94,363.75,243.95,363.75,243.92z"/>
					</g>
				</g>
			</g>
		</g>
	</g>
	<g>
		<g>
			<g>
				<path class="st0" d="M708.8,282.05c0-21.63-19.55-38.7-41.95-34.5c-14.09,2.64-25.31,14.15-27.78,28.27
					c-1.54,8.83,0.28,17.13,4.3,23.98h-0.02l0.1,0.13c1.35,2.27,3.04,3.89,4.74,6.28l20.4,27.02c2.54,3.36,7.59,3.36,10.13,0
					l20.06-26.58c0,0,3.74-4.47,5.1-6.76l0.07-0.1h-0.01C707.01,294.58,708.8,288.53,708.8,282.05z M673.66,297.35
					c-8.54,0-15.46-6.92-15.46-15.46c0-8.54,6.92-15.46,15.46-15.46c8.54,0,15.46,6.92,15.46,15.46
					C689.12,290.42,682.2,297.35,673.66,297.35z"/>
			</g>
		</g>
	</g>
	<g>
		<g>
			<g>
				<path class="st0" d="M542.9,125.82v41.32c0,0.89,0.72,1.61,1.61,1.61h86.64c0.9,0,1.62-0.73,1.61-1.63l-0.2-15.13
					c0-0.34-0.12-0.67-0.32-0.94l-12.43-16.61c-0.3-0.4-0.77-0.64-1.28-0.65l-14.32-0.11c-0.88-0.01-1.6-0.73-1.6-1.61v-6.25
					c0-0.89-0.72-1.61-1.61-1.61h-56.5C543.62,124.21,542.9,124.93,542.9,125.82z"/>
			</g>
		</g>
		<g>
			<g>
				<path class="st1" d="M606.65,137.28v13.26c0,0.52,0.42,0.93,0.94,0.92l19.13-0.34c0.73-0.01,1.16-0.83,0.75-1.44l-8.94-13.19
					c-0.18-0.26-0.47-0.41-0.79-0.4l-10.18,0.27C607.05,136.37,606.65,136.78,606.65,137.28z"/>
			</g>
		</g>
		<g>
			<g>
				<rect x="541.16" y="170.01" class="st0" width="93.33" height="2.88"/>
			</g>
		</g>
		<g>
			<g>
				
					<ellipse transform="matrix(0.7071 -0.7071 0.7071 0.7071 43.8436 448.0709)" class="st1" cx="562.79" cy="171.11" rx="9.23" ry="9.23"/>
			</g>
		</g>
		<g>
			<g>
				<path class="st2" d="M568.22,171.11c0,3-2.43,5.43-5.43,5.43c-3,0-5.43-2.43-5.43-5.43c0-3,2.43-5.43,5.43-5.43
					C565.79,165.68,568.22,168.11,568.22,171.11z"/>
			</g>
		</g>
		<g>
			<g>
				<g>
					<path class="st1" d="M602.55,168.75c-0.23,0-0.42-9.97-0.42-22.27c0-12.3,0.19-22.27,0.42-22.27c0.23,0,0.42,9.97,0.42,22.27
						C602.97,158.78,602.78,168.75,602.55,168.75z"/>
				</g>
			</g>
		</g>
		<g>
			<g>
				<g>
					
						<ellipse transform="matrix(0.7071 -0.7071 0.7071 0.7071 58.5778 483.6424)" class="st1" cx="613.1" cy="171.11" rx="9.23" ry="9.23"/>
				</g>
			</g>
			<g>
				<g>
					<path class="st2" d="M618.53,171.11c0,3-2.43,5.43-5.43,5.43c-3,0-5.43-2.43-5.43-5.43c0-3,2.43-5.43,5.43-5.43
						C616.1,165.68,618.53,168.11,618.53,171.11z"/>
				</g>
			</g>
		</g>
		<g>
			<g>
				<g>
					<path class="st1" d="M613.12,154.08c0,0.23-1.32,0.42-2.95,0.42c-1.63,0-2.95-0.19-2.95-0.42c0-0.23,1.32-0.42,2.95-0.42
						C611.8,153.66,613.12,153.84,613.12,154.08z"/>
				</g>
			</g>
		</g>
	</g>
</g>
<g id="Background_Simple" class="st4">
	<path class="st5" d="M640.33,166.48c-12.13-45.99-39.09-80.34-76.93-96.62c-37.85-16.27-91.98-0.17-118.19,31.61
		c-19.16,23.23-25.06,55.85-46.49,77.01c-19.59,19.34-48.88,25.53-76.39,24.89c-27.52-0.64-54.56-7.16-82-9.32
		c-27.44-2.15-56.71,0.61-79.21,16.47c-29.53,20.82-47.13,71.63-43.73,107.6c4.68,49.62,37.76,99.83,83.23,110.54l297.99,4.19
		c39.12-0.98,82.04-38.24,102.7-74.22c11.04-19.24,20.77-23.67,31.07-58.79C649.11,242.71,650.84,206.32,640.33,166.48z"/>
</g>
<g id="Floor">
	<g>
		<g>
			<g>
				<path class="st6" d="M726.14,462.19c0,0.14-156.73,0.26-350.02,0.26c-193.36,0-350.05-0.12-350.05-0.26
					c0-0.14,156.7-0.26,350.05-0.26C569.41,461.93,726.14,462.05,726.14,462.19z"/>
			</g>
		</g>
	</g>
</g>
<g id="Plant">
	<g>
		<g>
			<g>
				<g>
					<g>
						<path class="st7" d="M165.86,457.79c13.47-9.34,16.58-26.76,16.11-42.43c-0.08-2.62,0.22-5.37-1.02-7.67
							c-1.24-2.3-4.13-3.88-6.48-2.78c-1.95,0.91-2.8,3.16-3.89,5.03c-1.45,2.48-3.62,4.53-6.15,5.84
							c-1.67,0.86-3.73,1.38-5.37,0.47c-2.25-1.25-2.51-4.37-2.48-6.97c0.05-4.85,0.09-9.7,0.14-14.54c0.03-2.6,0.04-5.26-0.76-7.73
							c-0.8-2.47-2.58-4.77-5.05-5.47c-2.47-0.7-5.54,0.71-6.07,3.26c-0.22,1.06-0.01,2.16-0.09,3.24
							c-0.08,1.08-0.58,2.27-1.61,2.57c-1.04,0.3-2.08-0.44-2.85-1.2c-2.68-2.64-4.49-6.03-6.18-9.4c-1.69-3.37-3.33-6.82-5.76-9.69
							c-2.43-2.87-5.79-5.16-9.51-5.38c-3.73-0.22-7.7,2.06-8.66,5.72c-0.96,3.66,1.17,7.39,3.49,10.37
							c3.44,4.42,7.51,8.33,12.05,11.57c0.82,0.58,1.7,1.22,2.01,2.18c0.56,1.74-1.09,3.45-2.8,4.02c-1.94,0.64-4.04,0.43-6.07,0.66
							c-2.03,0.23-4.23,1.12-5,3.03c-1.07,2.65,1.14,5.45,3.32,7.28c4.37,3.67,9.36,6.58,14.69,8.55c1.91,0.71,3.92,1.33,5.46,2.68
							c1.54,1.35,2.46,3.69,1.52,5.52c-0.94,1.83-3.33,2.41-5.34,2.03c-2-0.38-3.79-1.47-5.7-2.2c-3.57-1.36-8.19-1.13-10.49,1.95
							c-1.51,2.03-1.65,4.85-0.9,7.28c0.75,2.42,2.29,4.51,3.92,6.44c5.71,6.74,13.02,12.18,21.31,15.08
							C149.93,459.97,157.61,460.77,165.86,457.79"/>
					</g>
				</g>
			</g>
		</g>
		<g>
			<g>
				<g>
					<g>
						<g>
							<path class="st6" d="M164.97,462.2c-0.55-6.21-0.83-6.34-3.12-14.25c-2.28-7.92-5.5-16.38-9.16-25.13
								c-0.93-2.18-1.84-4.34-2.74-6.46c-0.9-2.12-1.8-4.22-2.81-6.22c-1.99-4.01-4.21-7.72-6.43-11.17
								c-2.22-3.45-4.45-6.65-6.55-9.62c-2.11-2.97-4.14-5.7-6.09-8.11c-3.89-4.84-7.47-8.36-10.04-10.68
								c-1.28-1.16-2.3-2.03-3-2.62c-0.34-0.28-0.6-0.49-0.8-0.66c-0.18-0.15-0.28-0.22-0.28-0.21c-0.01,0.01,0.08,0.09,0.25,0.25
								c0.19,0.17,0.45,0.4,0.77,0.69c0.68,0.6,1.68,1.5,2.94,2.68c2.52,2.36,6.06,5.91,9.9,10.76c1.93,2.42,3.93,5.15,6.02,8.13
								c2.09,2.98,4.31,6.18,6.51,9.63c2.2,3.45,4.4,7.15,6.38,11.14c1,1.99,1.88,4.08,2.79,6.2c0.9,2.12,1.81,4.28,2.74,6.46
								c3.67,8.74,6.89,17.18,9.18,25.06c2.31,7.88,2.62,7.97,3.2,14.15"/>
						</g>
					</g>
				</g>
			</g>
		</g>
		<g>
			<g>
				<g>
					<g>
						<g>
							<path class="st6" d="M147.01,410.12c0.03,0.01,0.12-0.39,0.26-1.11c0.14-0.72,0.31-1.76,0.49-3.06
								c0.38-2.59,0.78-6.18,1.2-10.14c0.42-3.96,0.87-7.54,1.29-10.12c0.2-1.29,0.38-2.33,0.51-3.05c0.13-0.72,0.18-1.12,0.15-1.13
								c-0.03-0.01-0.15,0.38-0.33,1.09c-0.19,0.71-0.41,1.74-0.66,3.03c-0.5,2.57-1.01,6.16-1.43,10.12
								c-0.41,3.91-0.78,7.45-1.06,10.15c-0.14,1.22-0.25,2.25-0.34,3.08C147,409.71,146.97,410.11,147.01,410.12z"/>
						</g>
					</g>
				</g>
			</g>
		</g>
		<g>
			<g>
				<g>
					<g>
						<g>
							<path class="st6" d="M113.58,403.75c0,0.03,0.47,0.09,1.33,0.16c0.86,0.08,2.1,0.19,3.63,0.37
								c3.06,0.34,7.28,0.96,11.89,1.85c4.62,0.9,8.76,1.88,11.74,2.69c1.49,0.39,2.69,0.74,3.52,0.97c0.83,0.24,1.29,0.36,1.3,0.32
								c0.01-0.03-0.43-0.21-1.25-0.5c-0.81-0.29-2-0.69-3.49-1.12c-2.96-0.89-7.11-1.93-11.74-2.83
								c-4.63-0.89-8.87-1.46-11.95-1.71c-1.54-0.14-2.79-0.2-3.65-0.22C114.06,403.71,113.59,403.72,113.58,403.75z"/>
						</g>
					</g>
				</g>
			</g>
		</g>
		<g>
			<g>
				<g>
					<g>
						<g>
							<path class="st6" d="M161.44,447.34c0.02,0.01,0.09-0.13,0.23-0.41c0.16-0.33,0.35-0.73,0.58-1.21
								c0.5-1.05,1.17-2.59,1.99-4.5c1.63-3.83,3.71-9.18,5.92-15.12c2.22-5.94,4.25-11.31,5.79-15.16
								c0.76-1.87,1.38-3.41,1.84-4.56c0.2-0.5,0.36-0.91,0.49-1.24c0.11-0.29,0.16-0.44,0.14-0.45c-0.02-0.01-0.09,0.13-0.23,0.41
								c-0.16,0.33-0.35,0.72-0.58,1.21c-0.5,1.05-1.17,2.59-1.99,4.5c-1.63,3.83-3.71,9.18-5.93,15.12
								c-2.22,5.94-4.25,11.31-5.79,15.16c-0.76,1.87-1.38,3.41-1.84,4.56c-0.2,0.5-0.36,0.91-0.49,1.24
								C161.48,447.18,161.43,447.33,161.44,447.34z"/>
						</g>
					</g>
				</g>
			</g>
		</g>
		<g>
			<g>
				<g>
					<g>
						<g>
							<path class="st6" d="M117.05,432.86c0,0.02,0.15,0.08,0.44,0.18c0.35,0.12,0.77,0.26,1.29,0.44c1.19,0.39,2.8,0.92,4.75,1.56
								c4.01,1.32,9.54,3.2,15.64,5.29c6.1,2.09,11.65,3.92,15.69,5.16c2.02,0.62,3.66,1.1,4.8,1.41c0.53,0.14,0.96,0.26,1.32,0.35
								c0.3,0.07,0.46,0.11,0.47,0.09c0-0.02-0.15-0.08-0.44-0.18c-0.35-0.12-0.77-0.26-1.29-0.44c-1.19-0.39-2.8-0.92-4.75-1.56
								c-4.01-1.32-9.54-3.2-15.64-5.29c-6.1-2.09-11.64-3.92-15.69-5.16c-2.02-0.62-3.66-1.1-4.8-1.41
								c-0.53-0.14-0.96-0.26-1.32-0.35C117.22,432.87,117.06,432.84,117.05,432.86z"/>
						</g>
					</g>
				</g>
			</g>
		</g>
	</g>
</g>
<g id="Device">
	<g>
		<g>
			<g>
				<g>
					<g>
						<g>
							<g>
								<g>
									<g>
										<g>
											<g>
												<g>
													<path class="st6" d="M328.24,462.19l-139.17,0c-16.82-0.08-31.03-14.42-30.96-31.23l1.48-350.51
														c0.07-16.83,13.77-30.4,30.6-30.33l139.81,0.65c16.82,0.08,30.39,13.77,30.31,30.58l-1.48,350.51
														C358.77,448.69,345.07,462.27,328.24,462.19z"/>
												</g>
											</g>
										</g>
									</g>
								</g>
							</g>
						</g>
					</g>
				</g>
			</g>
		</g>
		<g>
			<g>
				<g>
					<g>
						<g>
							<path class="st0" d="M329.81,64.08l-27.11-0.12c-3.63-0.02-6.6,3.05-6.61,6.85l-0.02,4.92c-0.02,3.8-2.98,6.87-6.61,6.85
								l-52.84-0.24c-3.63-0.02-6.57-3.11-6.55-6.91l0.02-4.92c0.02-3.8-2.92-6.9-6.55-6.91L214,63.55l-23.73-0.11
								c-11.78-0.05-21.38,9.46-21.43,21.24l-1.45,342.13c-0.05,11.78,9.45,21.37,21.23,21.42l139.53,0.64
								c11.78,0.05,21.38-9.46,21.43-21.24l1.45-342.13C351.09,73.73,341.58,64.14,329.81,64.08z"/>
						</g>
					</g>
				</g>
			</g>
			<g>
				<g>
					<path class="st0" d="M270.59,384.22c-0.16,4.13-0.31,8.01-0.44,11.23h20.04l-2.45-12.31L270.59,384.22z"/>
				</g>
				<g>
					<path class="st0" d="M189.13,389.37l0.17,6.07h78.85c0.13-3.41,0.28-7.2,0.43-11.1L189.13,389.37z"/>
				</g>
				<g>
					<polygon class="st0" points="288.75,383.07 291.21,395.45 328.17,395.45 327.72,380.61 					"/>
				</g>
				<g>
					<polygon class="st0" points="272.59,210.08 279.58,169.57 261.28,168.21 261.28,210.08 					"/>
				</g>
				<g>
					<polygon class="st0" points="187.48,366.88 167.62,374.66 167.56,388.73 188.07,387.43 					"/>
				</g>
				<g>
					<polygon class="st0" points="187.39,363.72 186.3,325.99 186.29,325.99 186.29,312.68 167.87,314.63 167.63,371.44 
						187.38,363.7 					"/>
				</g>
				<g>
					<polygon class="st0" points="186.29,282.98 168.02,280.56 167.89,311.62 186.29,309.67 					"/>
				</g>
				<g>
					<polygon class="st0" points="322.48,313.24 321.71,324.06 300.13,326.38 301.8,334.94 326.29,333.09 325.93,320.82 
						327.88,312.7 					"/>
				</g>
				<g>
					<polygon class="st0" points="283.58,336.31 300.79,335.01 297.04,315.81 282.02,317.33 					"/>
				</g>
				<g>
					<polygon class="st0" points="283.75,338.3 285.06,354.32 287.39,376.28 288.35,381.09 327.66,378.6 326.35,335.09 					"/>
				</g>
				<g>
					<path class="st0" d="M216.09,262.7l1.51,2.59l-30.31,17.68v41.94l31.99-2.26l61.66-6.22l-2.26-27.49l-58.91-7.7l0.39-2.97
						l58.27,7.61l-3.82-46.53l-57.67,5.55l-0.19-1.99l57.7-5.55l-1.99-24.28h-55.48l-48.72,8.87l-0.24,55.6l18.45,2.43L216.09,262.7
						z M190.39,320.91c0,0,0.23-34.58,0-35.88l24.74-13.16l3.21,47.27L190.39,320.91z"/>
				</g>
				<g>
					<polygon class="st0" points="320.46,313.45 298.04,315.71 299.74,324.41 319.83,322.25 					"/>
				</g>
				<g>
					<path class="st0" d="M270.87,376.81c-0.07,1.82-0.14,3.62-0.21,5.4l16.68-1.06l-0.86-4.3L270.87,376.81z"/>
				</g>
				<g>
					<polygon class="st0" points="234.94,210.08 237.88,196.76 260.28,196.76 260.28,168.14 190.25,162.95 190.25,189.82 
						168.38,194.77 168.28,218.89 216.71,210.08 					"/>
				</g>
				<g>
					<path class="st0" d="M281.67,130.45l-0.6-2.45l26.74-10.58L290.42,82.5c-0.31,0.05-0.63,0.08-0.96,0.08l-29.55-0.14l0.8,48.86
						L281.67,130.45z"/>
				</g>
				<g>
					<path class="st0" d="M322.19,111.72l-0.03-47.67l-19.46-0.09c-3.63-0.02-6.6,3.05-6.61,6.85l-0.02,4.92
						c-0.01,2.35-1.14,4.41-2.86,5.64l17.4,34.94L322.19,111.72z"/>
				</g>
				<g>
					<path class="st0" d="M221.67,113.77l-2.25-50.19L214,63.55l-21.15-0.1l-9.01,44.89L221.67,113.77z M216.85,68.66l0.72,40.88
						l-28.11-4.11l6.16-36.76L216.85,68.66z"/>
				</g>
				<g>
					<path class="st0" d="M222.69,113.92l0.01,0.43c0.05,3.92,0.13,10.97,0.19,18.51l36.83-1.5l-0.8-48.91l-22.29-0.1
						c-3.63-0.02-6.57-3.11-6.55-6.91l0.02-4.92c0.02-3.8-2.92-6.9-6.55-6.91l-3.12-0.01l2.26,50.33L222.69,113.92z"/>
				</g>
				<g>
					<path class="st0" d="M180.87,107.91l8.92-44.45c-11.56,0.21-20.89,9.6-20.94,21.22l-0.09,22.16l0.09-0.65L180.87,107.91z"/>
				</g>
				<g>
					<polygon class="st0" points="187.25,162.73 168.52,161.34 168.39,191.69 187.25,187.42 					"/>
				</g>
				<g>
					<polygon class="st0" points="180.67,108.89 168.75,107.18 168.54,156.33 171.11,156.52 					"/>
				</g>
				<g>
					<polygon class="st0" points="218.5,363.14 218.81,323.69 187.3,325.92 188.42,364.57 					"/>
				</g>
				<g>
					<path class="st0" d="M224.3,354.04l44.63,21.38c0.53-13.97,1.01-27.03,0.96-27.87l0.97-0.05l0.47-0.94
						c0.63,0.32,0.63,0.32,0.3,9.84c-0.19,5.31-0.45,12.38-0.72,19.46h15.43l-2.28-21.44l-3.04-36.99l-58.31,5.88L224.3,354.04z"/>
				</g>
				<g>
					<polygon class="st0" points="333.69,288.55 333.18,283.35 279.69,288.92 281.94,316.33 328.13,311.67 					"/>
				</g>
				<g>
					<polygon class="st0" points="260.28,199.76 240.29,199.76 238.01,210.08 260.28,210.08 					"/>
				</g>
				<g>
					<path class="st0" d="M325.43,203.24l-50.05-3.46l-2.04,11.82l2.11,25.66l52.78-5.08L325.43,203.24z M277.22,211.58l2.69-7.46
						l43.47,2.75l2.52,21.35l-47.2,5.6L277.22,211.58z"/>
				</g>
				<g>
					<polygon class="st0" points="330.62,256.87 328.42,234.18 275.61,239.25 277.6,263.41 					"/>
				</g>
				<g>
					<polygon class="st0" points="188.13,389.43 167.64,390.73 167.56,389.4 167.53,395.45 188.3,395.45 					"/>
				</g>
				<g>
					<path class="st0" d="M350.67,100.45l0.3,0.76l0.07-15.71c0.05-11.78-9.45-21.36-21.23-21.42l-6.65-0.03l0.03,47.27
						L350.67,100.45z"/>
				</g>
				<g>
					<path class="st0" d="M268.88,376.51l-45.55-21.82l-1.61-31.27l-1.91,0.19l-0.32,40.49l-31.05,1.47l0.03,0.9l0.01,0.02l-0.01,0
						l0.6,20.88l79.59-5.03C268.73,380.4,268.81,378.45,268.88,376.51z M190.39,368.14l43.46-3.05l28.27,13.12l-71.73,3.88V368.14z"
						/>
				</g>
				<g>
					<path class="st0" d="M337.72,152.96l1.86-11.05c-16.34-5.83-17.47-22.86-17.42-28.02l-10.66,4.22l16.06,32.23L337.72,152.96z"
						/>
				</g>
				<g>
					<polygon class="st0" points="279.44,285.93 301.65,283.62 297.28,264 277.84,266.4 					"/>
				</g>
				<g>
					<polygon class="st0" points="325.51,169.9 284.02,169.9 280.58,169.64 275.89,196.8 325.13,200.21 323.99,188.4 328.84,170.96 
											"/>
				</g>
				<g>
					<path class="st0" d="M324.49,164.9l0.52-12.97l-16.3-32.73l-25.28,10l8.69,35.69H324.49z M307.72,123.19l14.94,28.42
						l-2.16,8.86l-25.56-0.96l-6.39-26.88L307.72,123.19z"/>
				</g>
				<g>
					<polygon class="st0" points="330.94,321.34 331.71,346.81 349.68,345.8 349.74,346.8 331.74,347.81 332.65,378.29 
						349.65,377.21 349.77,379.21 332.71,380.29 333.17,395.45 349.73,395.45 350.09,310.46 333.15,312.17 					"/>
				</g>
				<g>
					<path class="st0" d="M221.7,114.78l-38.06-5.46l-9.52,47.42l47.75,3.54C222.06,152.98,221.89,130.58,221.7,114.78z"/>
				</g>
				<g>
					<polygon class="st0" points="284.3,164.9 290.06,164.9 281.91,131.44 260.73,132.31 261.24,163.2 					"/>
				</g>
				<g>
					<path class="st0" d="M167.43,419.79l-0.03,7.02c0,0.22,0.02,0.43,0.03,0.64V419.79z"/>
				</g>
				<g>
					<path class="st0" d="M222.84,160.35l37.39,2.77l-0.51-30.77l-36.84,1.51C222.97,144.26,223,155.36,222.84,160.35z"/>
				</g>
				<g>
					<polygon class="st0" points="330.91,259.86 298.27,263.88 302.66,283.51 332.89,280.37 					"/>
				</g>
				<g>
					<path class="st0" d="M339.76,140.9l2.09-12.4l9.01,0.7l0.11-26.71l-27.79,11C322.61,132.28,334.42,138.89,339.76,140.9z"/>
				</g>
				<g>
					<polygon class="st0" points="329.06,188.84 330.19,200.56 350.55,201.97 350.65,177.84 333.61,172.46 					"/>
				</g>
				<g>
					<path class="st0" d="M338.74,288.91l-5.35,22.23l16.69-1.68l0.1-23.31c-5.12-1.35-9.59-2.45-12-2.91L338.74,288.91z"/>
				</g>
				<g>
					<polygon class="st0" points="327.48,165.28 350.67,172.61 350.73,159.42 327.95,153.53 					"/>
				</g>
				<g>
					<path class="st0" d="M337.9,280.18c1.87,0.28,5.41,1.03,12.3,2.85l0.22-50.97l-17.02,1.64L337.9,280.18z"/>
				</g>
				<g>
					<polygon class="st0" points="333.21,231.71 350.43,230.05 350.53,204.98 330.48,203.59 					"/>
				</g>
				<g>
					<path class="st0" d="M341.68,141.53c3.26,0.99,6.3,1.76,9.11,2.32l0.05-12.65l-7.33-0.57L341.68,141.53z"/>
				</g>
				<g>
					<path class="st0" d="M339.67,153.46l11.07,2.86l0.05-11.44c-2.86-0.57-5.95-1.35-9.28-2.36L339.67,153.46z"/>
				</g>
				<g>
					<path class="st8" d="M188.13,389.43l0.17,6.01h1l-0.17-6.07l79.45-5.03c-0.15,3.9-0.3,7.69-0.43,11.1h2
						c0.13-3.22,0.28-7.1,0.44-11.23l17.15-1.08l2.45,12.31h1.02l-2.47-12.38l38.97-2.47l0.45,14.84h5l-0.46-15.16l17.06-1.08
						l-0.13-2l-16.99,1.07l-0.92-30.48l18-1.01l-0.06-1l-17.97,1.01l-0.76-25.47l2.21-9.18l16.94-1.71l0-1.01l-16.69,1.68
						l5.35-22.23l-0.55-5.68c2.4,0.46,6.87,1.56,12,2.91l0.01-3.12c-6.89-1.81-10.43-2.56-12.3-2.85l-4.5-46.48l17.02-1.64
						l0.01-2.01l-17.22,1.66l-2.72-28.12l20.05,1.39l0.01-3.01l-20.36-1.41l-1.13-11.72l4.55-16.38l17.04,5.38l0.02-5.24
						l-23.19-7.32l0.47-11.75l22.78,5.89l0.01-3.09l-11.07-2.86l1.84-10.93c3.32,1.01,6.41,1.79,9.28,2.36l0-1.03
						c-2.81-0.56-5.85-1.33-9.11-2.32l1.84-10.9l7.33,0.57l0.01-2.01l-9.01-0.7l-2.09,12.4c-5.33-2.01-17.14-8.62-16.58-27.42
						l27.79-11l0.01-1.27l-0.3-0.76l-27.48,10.87l-0.03-47.27l-1,0l0.03,47.67l-11.58,4.58l-17.4-34.94
						c-0.82,0.59-1.76,0.98-2.79,1.13l17.39,34.91L281.07,128l0.6,2.45l-20.96,0.86l-0.8-48.86l-1,0l0.8,48.91l-36.83,1.5
						c-0.06-7.54-0.14-14.59-0.19-18.51l-0.01-0.43l-0.01,0l-2.26-50.33l-1,0l2.25,50.19l-37.83-5.43l9.01-44.89l-2.58-0.01
						c-0.16,0-0.32,0.02-0.49,0.02l-8.92,44.45l-12.02-1.73l-0.09,0.65l0,0.34l11.92,1.71l-9.56,47.63l-2.57-0.19l-0.02,5.01
						l18.73,1.39v24.7l-18.86,4.27l-0.01,3.08l21.87-4.95v-26.87l70.02,5.19v28.62h-22.39l-2.94,13.32h-18.23l-48.43,8.81
						l-0.01,3.05l48.72-8.87h55.48l1.99,24.28l-57.7,5.55l0.19,1.99l57.67-5.55l3.82,46.53l-58.27-7.61l-0.39,2.97l58.91,7.7
						l2.26,27.49l-61.66,6.22l-31.99,2.26v-41.94l30.31-17.68l-1.51-2.59l-29.62,17.27l-18.45-2.43l-0.01,3.02l18.27,2.41v26.69
						l-18.4,1.95l-0.01,3.02l18.42-1.95v13.31l0.01,0l1.09,37.73l-0.01-0.02l-19.75,7.74l-0.01,3.23l19.86-7.78l0.59,20.55
						l-20.51,1.3l0,0.67l0.08,1.33L188.13,389.43z M270.67,382.21c0.07-1.78,0.14-3.58,0.21-5.4l15.62,0.04l0.86,4.3L270.67,382.21z
						 M288.35,381.09l-0.96-4.81l-2.33-21.96l-1.32-16.01l42.61-3.21l1.31,43.51L288.35,381.09z M298.04,315.71l22.41-2.26
						l-0.63,8.8l-20.09,2.17L298.04,315.71z M297.04,315.81l3.75,19.2l-17.21,1.3l-1.56-18.99L297.04,315.81z M326.29,333.09
						l-24.5,1.85l-1.67-8.56l21.58-2.33l0.77-10.81l5.4-0.55l-1.95,8.13L326.29,333.09z M297.28,264l4.38,19.61l-22.21,2.31
						l-1.6-19.53L297.28,264z M302.66,283.51l-4.38-19.63l32.63-4.02l1.99,20.51L302.66,283.51z M325.13,200.21l-49.24-3.41
						l4.69-27.16l3.44,0.26l41.48,0.01l3.33,1.05l-4.85,17.45L325.13,200.21z M322.17,113.88c-0.05,5.16,1.08,22.19,17.42,28.02
						l-1.86,11.05l-10.16-2.63l-16.06-32.23L322.17,113.88z M308.71,119.21l16.3,32.73l-0.52,12.97h-32.37l-8.69-35.69
						L308.71,119.21z M281.91,131.44l8.15,33.46h-5.76l-23.06-1.71l-0.51-30.89L281.91,131.44z M259.73,132.35l0.51,30.77
						l-37.39-2.77c0.16-4.99,0.12-16.09,0.05-26.5L259.73,132.35z M183.64,109.32l38.06,5.46c0.19,15.8,0.36,38.19,0.17,45.49
						l-47.75-3.54L183.64,109.32z M279.58,169.57l-6.99,40.51h-11.31v-41.87L279.58,169.57z M240.29,199.76h19.98v10.32h-22.26
						L240.29,199.76z M273.34,211.6l2.04-11.82l50.05,3.46l2.8,28.95l-52.78,5.08L273.34,211.6z M328.42,234.18l2.2,22.7
						l-53.02,6.53l-1.98-24.15L328.42,234.18z M279.69,288.92l53.49-5.56l0.5,5.2l-5.56,23.11l-46.19,4.66L279.69,288.92z
						 M284.07,354.41l2.28,21.44h-15.43c0.27-7.07,0.53-14.14,0.72-19.46c0.33-9.52,0.33-9.52-0.3-9.84l-0.47,0.94l-0.97,0.05
						c0.04,0.83-0.43,13.9-0.96,27.87l-44.63-21.38l-1.58-30.73l58.31-5.88L284.07,354.41z M218.81,323.69l-0.31,39.46l-30.08,1.43
						l-1.11-38.65L218.81,323.69z M188.47,366.49L188.47,366.49l0-0.02l-0.03-0.9l31.05-1.47l0.32-40.49l1.91-0.19l1.61,31.27
						l45.55,21.82c-0.07,1.94-0.15,3.89-0.22,5.83l-79.59,5.03L188.47,366.49z"/>
				</g>
				<g>
					<polygon class="st1" points="233.85,365.1 190.39,368.14 190.39,382.09 262.12,378.21 					"/>
				</g>
				<g>
					<polygon class="st1" points="323.38,206.87 279.91,204.12 277.22,211.58 278.69,233.81 325.89,228.21 					"/>
				</g>
				<g>
					<path class="st1" d="M188.63,448.23l139.53,0.64c11.78,0.05,21.38-9.46,21.43-21.24l0.14-32.19h-16.56h-5h-36.95h-1.02h-20.04
						h-2H189.3h-1h-20.77l-0.1,24.34v7.66C167.72,438.93,177.07,448.17,188.63,448.23z"/>
				</g>
				<g>
					<polygon class="st1" points="217.57,109.54 216.85,68.66 195.61,68.66 189.46,105.43 					"/>
				</g>
				<g>
					<polygon class="st1" points="320.5,160.47 322.66,151.61 307.72,123.19 288.55,132.63 294.94,159.51 					"/>
				</g>
				<g>
					<path class="st1" d="M190.39,285.04c0.23,1.29,0,35.88,0,35.88l27.94-1.77l-3.21-47.27L190.39,285.04z"/>
				</g>
			</g>
			<g>
				<polygon class="st1" points="283.59,313.12 282.11,291.69 330.03,285.53 330.03,289.23 324.24,308.94 				"/>
			</g>
			<g>
				<g>
					<g>
						<g>
							<path class="st9" d="M248.14,135.39c0,3.22-2.61,5.84-5.84,5.84c-3.22,0-5.84-2.61-5.84-5.84s2.61-5.84,5.84-5.84
								C245.53,129.55,248.14,132.17,248.14,135.39z"/>
						</g>
						<g class="st10">
							<path class="st8" d="M248.13,135.14c0.14,3.22-2.36,5.94-5.58,6.08c-3.22,0.14-5.94-2.36-6.08-5.58
								c-0.14-3.22,2.36-5.94,5.58-6.08C245.27,129.42,248,131.92,248.13,135.14z"/>
						</g>
						<g>
							<circle class="st7" cx="242.3" cy="135.19" r="3.88"/>
						</g>
						<g>
							<path class="st7" d="M332.53,368.54c0,1.38-1.12,2.49-2.49,2.49s-2.49-1.12-2.49-2.49c0-1.38,1.12-2.49,2.49-2.49
								S332.53,367.16,332.53,368.54z"/>
						</g>
						<g>
							<path class="st7" d="M328.54,367.73l-0.6-13.98l-42.13,2.05c-1.1,0.06-2.2-0.18-3.18-0.68l-59.75-30.18
								c-1.38-0.7-2.29-2.09-2.37-3.64l-8.13-157.74c-0.04-0.76,0.25-1.49,0.79-2.02c0.54-0.53,1.29-0.8,2.04-0.75l25.61,1.9v-28h3
								v28.38c0,0.73-0.31,1.44-0.84,1.93c-0.54,0.5-1.26,0.75-1.99,0.7l-25.59-1.9l8.11,157.33c0.02,0.47,0.3,0.9,0.73,1.12
								l59.75,30.18c0.52,0.26,1.1,0.39,1.69,0.36l42.48-2.07c0.72-0.03,1.39,0.21,1.92,0.69c0.53,0.48,0.83,1.13,0.86,1.85
								l0.62,14.33L328.54,367.73z"/>
						</g>
					</g>
					<g>
						<circle class="st7" cx="217.26" cy="232.05" r="7.56"/>
					</g>
					<g>
						<circle class="st2" cx="217.26" cy="232.05" r="5.25"/>
						<path class="st9" d="M217.26,237.68c-3.1,0-5.63-2.52-5.63-5.63c0-3.1,2.52-5.63,5.63-5.63c3.1,0,5.63,2.52,5.63,5.63
							C222.88,235.15,220.36,237.68,217.26,237.68z M217.26,227.17c-2.69,0-4.88,2.19-4.88,4.88c0,2.69,2.19,4.88,4.88,4.88
							c2.69,0,4.88-2.19,4.88-4.88C222.13,229.36,219.95,227.17,217.26,227.17z"/>
					</g>
				</g>
				<g>
					<g>
						<g>
							<path class="st9" d="M261.79,200.34h-36c-1.75,0-3.17,1.42-3.17,3.17v13.04c0,1.75,1.42,3.17,3.17,3.17h0.42v3.11l3.6-3.11
								h31.98c1.75,0,3.17-1.42,3.17-3.17v-13.04C264.96,201.76,263.54,200.34,261.79,200.34z"/>
						</g>
					</g>
					<g>
						<g>
							<path class="st7" d="M261.79,200.34h-36c-1.75,0-3.17,1.42-3.17,3.17v13.04c0,1.75,1.42,3.17,3.17,3.17h0.42v3.11l3.6-3.11
								h31.98c1.75,0,3.17-1.42,3.17-3.17v-13.04C264.96,201.76,263.54,200.34,261.79,200.34z"/>
						</g>
					</g>
					<g>
						<path class="st8" d="M230.72,209.82c0-1.19,0.92-2.08,2.17-2.08c1.24,0,2.16,0.88,2.16,2.08c0,1.2-0.92,2.08-2.16,2.08
							C231.64,211.9,230.72,211.01,230.72,209.82z M234.46,209.82c0-0.9-0.67-1.56-1.58-1.56c-0.91,0-1.59,0.66-1.59,1.56
							c0,0.9,0.67,1.56,1.59,1.56C233.79,211.39,234.46,210.72,234.46,209.82z"/>
						<path class="st8" d="M239.04,210.32c0,0.94-0.66,1.58-1.56,1.58c-0.45,0-0.85-0.17-1.1-0.52v0.49h-0.54v-4.31h0.56v1.7
							c0.26-0.33,0.64-0.49,1.08-0.49C238.39,208.75,239.04,209.37,239.04,210.32z M238.48,210.32c0-0.66-0.45-1.08-1.04-1.08
							c-0.59,0-1.03,0.42-1.03,1.08c0,0.66,0.45,1.09,1.03,1.09C238.03,211.4,238.48,210.97,238.48,210.32z"/>
						<path class="st8" d="M238.75,212.83l0.18-0.43c0.11,0.09,0.27,0.15,0.45,0.15c0.3,0,0.46-0.19,0.46-0.54v-3.23h0.56V212
							c0,0.63-0.35,1.02-0.98,1.02C239.17,213.02,238.91,212.96,238.75,212.83z M239.75,207.82c0-0.2,0.16-0.37,0.38-0.37
							c0.22,0,0.38,0.16,0.38,0.35c0,0.21-0.16,0.37-0.38,0.37C239.91,208.18,239.75,208.03,239.75,207.82z"/>
						<path class="st8" d="M244.24,210.5h-2.5c0.07,0.54,0.51,0.9,1.12,0.9c0.36,0,0.66-0.12,0.89-0.37l0.31,0.36
							c-0.28,0.33-0.7,0.5-1.22,0.5c-0.99,0-1.66-0.66-1.66-1.58c0-0.91,0.66-1.57,1.55-1.57c0.89,0,1.52,0.64,1.52,1.59
							C244.25,210.38,244.25,210.45,244.24,210.5z M241.74,210.1h1.98c-0.06-0.52-0.45-0.88-0.99-0.88
							C242.2,209.22,241.8,209.58,241.74,210.1z"/>
						<path class="st8" d="M244.74,210.32c0-0.92,0.68-1.57,1.63-1.57c0.55,0,1.01,0.23,1.26,0.66l-0.42,0.27
							c-0.2-0.3-0.5-0.44-0.84-0.44c-0.6,0-1.06,0.42-1.06,1.08c0,0.67,0.45,1.09,1.06,1.09c0.34,0,0.64-0.14,0.84-0.44l0.42,0.27
							c-0.24,0.43-0.7,0.66-1.26,0.66C245.42,211.89,244.74,211.23,244.74,210.32z"/>
						<path class="st8" d="M250.12,211.68c-0.17,0.15-0.42,0.21-0.67,0.21c-0.62,0-0.98-0.34-0.98-0.96v-1.69h-0.52v-0.46h0.52
							v-0.67h0.56v0.67h0.88v0.46h-0.88v1.67c0,0.33,0.17,0.52,0.48,0.52c0.16,0,0.32-0.05,0.44-0.15L250.12,211.68z"/>
						<path class="st8" d="M250.69,207.82c0-0.2,0.16-0.37,0.38-0.37c0.21,0,0.38,0.16,0.38,0.35c0,0.21-0.16,0.37-0.38,0.37
							C250.86,208.18,250.69,208.03,250.69,207.82z M250.79,208.78h0.56v3.08h-0.56V208.78z"/>
						<path class="st8" d="M255.14,208.78l-1.35,3.08h-0.57l-1.35-3.08h0.58l1.06,2.47l1.08-2.47H255.14z"/>
						<path class="st8" d="M258.35,210.5h-2.5c0.07,0.54,0.51,0.9,1.12,0.9c0.36,0,0.66-0.12,0.89-0.37l0.31,0.36
							c-0.28,0.33-0.7,0.5-1.22,0.5c-0.99,0-1.66-0.66-1.66-1.58c0-0.91,0.66-1.57,1.55-1.57c0.89,0,1.52,0.64,1.52,1.59
							C258.36,210.38,258.36,210.45,258.35,210.5z M255.85,210.1h1.98c-0.06-0.52-0.45-0.88-0.99-0.88
							C256.3,209.22,255.91,209.58,255.85,210.1z"/>
					</g>
				</g>
				<g>
					<g>
						<path class="st7" d="M249.9,115.78c0-4.61-4.16-8.24-8.93-7.35c-3,0.56-5.39,3.01-5.92,6.02c-0.33,1.88,0.06,3.65,0.92,5.11h0
							l0.02,0.03c0.29,0.48,0.65,0.83,1.01,1.34l4.35,5.76c0.54,0.72,1.62,0.72,2.16,0l4.27-5.66c0,0,0.8-0.95,1.09-1.44l0.02-0.02
							h0C249.52,118.45,249.9,117.16,249.9,115.78z M242.42,119.04c-1.82,0-3.29-1.47-3.29-3.29s1.47-3.29,3.29-3.29
							c1.82,0,3.29,1.47,3.29,3.29S244.24,119.04,242.42,119.04z"/>
					</g>
				</g>
			</g>
			<g>
				<g>
					<g>
						<path class="st6" d="M201.44,410.65h-1.39v-0.51h3.37v0.51h-1.4v3.56h-0.58V410.65z"/>
					</g>
					<g>
						<path class="st6" d="M203.36,412.67c0-0.92,0.68-1.57,1.6-1.57c0.92,0,1.6,0.65,1.6,1.57c0,0.92-0.67,1.58-1.6,1.58
							C204.04,414.25,203.36,413.59,203.36,412.67z M206,412.67c0-0.66-0.44-1.08-1.03-1.08c-0.59,0-1.04,0.42-1.04,1.08
							c0,0.66,0.45,1.09,1.04,1.09C205.56,413.76,206,413.33,206,412.67z"/>
					</g>
					<g>
						<path class="st6" d="M209.07,414.03c-0.17,0.15-0.42,0.22-0.67,0.22c-0.62,0-0.98-0.34-0.98-0.97v-1.69h-0.52v-0.46h0.52
							v-0.67h0.56v0.67h0.88v0.46h-0.88v1.67c0,0.33,0.17,0.52,0.48,0.52c0.16,0,0.32-0.05,0.44-0.15L209.07,414.03z"/>
					</g>
					<g>
						<path class="st6" d="M212.19,412.35v1.86h-0.53v-0.41c-0.19,0.28-0.53,0.44-1.01,0.44c-0.7,0-1.14-0.37-1.14-0.91
							c0-0.49,0.32-0.9,1.24-0.9h0.88v-0.11c0-0.47-0.27-0.74-0.83-0.74c-0.37,0-0.74,0.13-0.98,0.33l-0.23-0.42
							c0.32-0.26,0.78-0.4,1.27-0.4C211.71,411.1,212.19,411.51,212.19,412.35z M211.63,413.27v-0.43h-0.86
							c-0.55,0-0.71,0.21-0.71,0.48c0,0.31,0.26,0.5,0.68,0.5C211.16,413.82,211.49,413.63,211.63,413.27z"/>
					</g>
					<g>
						<path class="st6" d="M213.22,409.9h0.56v4.31h-0.56V409.9z"/>
					</g>
					<g>
						<path class="st6" d="M219.31,409.9v4.31h-0.54v-0.49c-0.25,0.35-0.65,0.52-1.1,0.52c-0.9,0-1.56-0.63-1.56-1.58
							c0-0.94,0.66-1.57,1.56-1.57c0.44,0,0.82,0.16,1.08,0.49v-1.7H219.31z M218.76,412.67c0-0.66-0.45-1.08-1.03-1.08
							c-0.59,0-1.04,0.42-1.04,1.08c0,0.66,0.45,1.09,1.04,1.09C218.31,413.76,218.76,413.33,218.76,412.67z"/>
					</g>
					<g>
						<path class="st6" d="M220.27,410.18c0-0.2,0.16-0.37,0.38-0.37c0.21,0,0.38,0.16,0.38,0.36c0,0.21-0.16,0.37-0.38,0.37
							C220.44,410.54,220.27,410.38,220.27,410.18z M220.37,411.13h0.56v3.08h-0.56V411.13z"/>
					</g>
					<g>
						<path class="st6" d="M221.6,413.89l0.23-0.44c0.26,0.19,0.68,0.32,1.08,0.32c0.52,0,0.73-0.16,0.73-0.42
							c0-0.69-1.95-0.09-1.95-1.32c0-0.55,0.49-0.92,1.28-0.92c0.4,0,0.85,0.1,1.12,0.28l-0.24,0.44c-0.28-0.18-0.59-0.24-0.89-0.24
							c-0.49,0-0.73,0.18-0.73,0.42c0,0.73,1.95,0.13,1.95,1.33c0,0.56-0.51,0.91-1.33,0.91
							C222.37,414.25,221.86,414.09,221.6,413.89z"/>
					</g>
					<g>
						<path class="st6" d="M226.64,414.03c-0.17,0.15-0.42,0.22-0.67,0.22c-0.62,0-0.98-0.34-0.98-0.97v-1.69h-0.52v-0.46h0.52
							v-0.67h0.56v0.67h0.88v0.46h-0.88v1.67c0,0.33,0.17,0.52,0.48,0.52c0.16,0,0.32-0.05,0.44-0.15L226.64,414.03z"/>
					</g>
					<g>
						<path class="st6" d="M229.76,412.35v1.86h-0.53v-0.41c-0.19,0.28-0.53,0.44-1.01,0.44c-0.7,0-1.14-0.37-1.14-0.91
							c0-0.49,0.32-0.9,1.24-0.9h0.88v-0.11c0-0.47-0.27-0.74-0.83-0.74c-0.37,0-0.74,0.13-0.98,0.33l-0.23-0.42
							c0.32-0.26,0.78-0.4,1.27-0.4C229.28,411.1,229.76,411.51,229.76,412.35z M229.2,413.27v-0.43h-0.86
							c-0.55,0-0.71,0.21-0.71,0.48c0,0.31,0.26,0.5,0.68,0.5C228.73,413.82,229.06,413.63,229.2,413.27z"/>
					</g>
					<g>
						<path class="st6" d="M233.71,412.44v1.77h-0.56v-1.71c0-0.6-0.3-0.9-0.83-0.9c-0.59,0-0.98,0.35-0.98,1.02v1.59h-0.56v-3.08
							h0.54v0.46c0.23-0.31,0.62-0.49,1.11-0.49C233.19,411.1,233.71,411.53,233.71,412.44z"/>
					</g>
					<g>
						<path class="st6" d="M234.48,412.67c0-0.92,0.68-1.57,1.63-1.57c0.55,0,1.01,0.23,1.26,0.66l-0.42,0.27
							c-0.2-0.3-0.5-0.44-0.84-0.44c-0.6,0-1.06,0.42-1.06,1.08c0,0.67,0.45,1.09,1.06,1.09c0.34,0,0.64-0.14,0.84-0.44l0.42,0.27
							c-0.24,0.43-0.7,0.66-1.26,0.66C235.16,414.25,234.48,413.59,234.48,412.67z"/>
					</g>
					<g>
						<path class="st6" d="M240.81,412.86h-2.5c0.07,0.54,0.51,0.9,1.12,0.9c0.36,0,0.66-0.12,0.89-0.37l0.31,0.36
							c-0.28,0.33-0.7,0.5-1.22,0.5c-0.99,0-1.66-0.66-1.66-1.58c0-0.91,0.66-1.57,1.55-1.57c0.89,0,1.52,0.64,1.52,1.59
							C240.82,412.74,240.82,412.8,240.81,412.86z M238.31,412.46h1.98c-0.06-0.52-0.45-0.88-0.99-0.88
							C238.77,411.57,238.37,411.93,238.31,412.46z"/>
					</g>
				</g>
				<g>
					<g>
						<path class="st6" d="M205.1,418.78v9.71h-2.25v-7.91h-1.94v-1.8H205.1z"/>
					</g>
					<g>
						<path class="st6" d="M209.41,427.24c0,0.36-0.06,0.62-0.37,1.39l-0.79,2h-1.37l0.61-2.2c-0.46-0.18-0.75-0.61-0.75-1.18
							c0-0.8,0.58-1.33,1.35-1.33C208.85,425.9,209.41,426.45,209.41,427.24z"/>
					</g>
					<g>
						<path class="st6" d="M213.95,418.78v9.71h-2.25v-7.91h-1.94v-1.8H213.95z"/>
					</g>
					<g>
						<path class="st6" d="M215.64,423.63c0-3.2,1.78-5.02,4.16-5.02c2.4,0,4.16,1.82,4.16,5.02s-1.76,5.02-4.16,5.02
							C217.41,428.65,215.64,426.83,215.64,423.63z M221.7,423.63c0-2.21-0.78-3.12-1.9-3.12c-1.11,0-1.89,0.92-1.89,3.12
							c0,2.21,0.78,3.12,1.89,3.12C220.92,426.75,221.7,425.84,221.7,423.63z"/>
					</g>
					<g>
						<path class="st6" d="M225.05,423.63c0-3.2,1.78-5.02,4.16-5.02c2.4,0,4.16,1.82,4.16,5.02s-1.76,5.02-4.16,5.02
							C226.83,428.65,225.05,426.83,225.05,423.63z M231.12,423.63c0-2.21-0.78-3.12-1.9-3.12c-1.11,0-1.89,0.92-1.89,3.12
							c0,2.21,0.78,3.12,1.89,3.12C230.34,426.75,231.12,425.84,231.12,423.63z"/>
					</g>
					<g>
						<path class="st6" d="M251.46,424.21v4.27h-2.16v-3.94c0-1.21-0.54-1.76-1.41-1.76c-0.97,0-1.65,0.62-1.65,1.96v3.75h-2.16
							v-3.94c0-1.21-0.51-1.76-1.41-1.76c-0.96,0-1.64,0.62-1.64,1.96v3.75h-2.16v-7.46h2.07v0.86c0.55-0.64,1.39-0.97,2.34-0.97
							c1.04,0,1.93,0.4,2.46,1.22c0.6-0.76,1.57-1.22,2.69-1.22C250.19,420.91,251.46,421.94,251.46,424.21z"/>
					</g>
				</g>
				<g>
					<g>
						<g>
							
								<ellipse transform="matrix(0.2289 -0.9734 0.9734 0.2289 -262.8787 504.1656)" class="st7" cx="186.8" cy="418.02" rx="8.37" ry="8.37"/>
						</g>
					</g>
					<g>
						<g>
							<g>
								<path class="st2" d="M183.42,419.54c0-0.05,0.78-0.09,2.15-0.13c1.37-0.04,3.32-0.07,5.66-0.09l-0.17,0.37
									c-0.66-0.76-1.38-1.6-2.14-2.47l-0.13-0.16l0.13-0.16c0.67-0.84,1.38-1.72,2.11-2.64l0.2,0.42c-0.3,0-0.63,0-0.95,0
									c-2.47-0.01-4.8-0.02-6.86-0.03l0.23-0.23c-0.02,2.54-0.05,4.68-0.09,6.18c-0.04,1.5-0.09,2.37-0.14,2.37
									c-0.05,0-0.1-0.87-0.14-2.37c-0.04-1.5-0.07-3.64-0.09-6.18l0-0.23l0.24,0c2.06-0.01,4.39-0.02,6.86-0.03
									c0.33,0,0.65,0,0.95,0l0.55,0l-0.34,0.42c-0.74,0.91-1.45,1.79-2.13,2.62l0-0.32c0.74,0.88,1.45,1.73,2.1,2.5l0.32,0.38
									l-0.49,0c-2.34-0.02-4.3-0.05-5.66-0.09C184.21,419.64,183.42,419.59,183.42,419.54z"/>
							</g>
						</g>
					</g>
				</g>
			</g>
			<g>
				<g>
					<path class="st7" d="M322.22,403.73h-25.31c-2.67,0-4.84,2.17-4.84,4.84v19.92c0,2.67,2.17,4.84,4.84,4.84h0.64v4.75l5.51-4.75
						h19.16c2.67,0,4.84-2.17,4.84-4.84v-19.92C327.07,405.9,324.9,403.73,322.22,403.73z"/>
				</g>
				<g>
					<g>
						<g>
							<path class="st2" d="M299.33,412.87v10.22c0,0.22,0.18,0.4,0.4,0.4h21.42c0.22,0,0.4-0.18,0.4-0.4l-0.05-3.74
								c0-0.08-0.03-0.17-0.08-0.23l-3.07-4.11c-0.07-0.1-0.19-0.16-0.32-0.16l-3.54-0.03c-0.22,0-0.39-0.18-0.39-0.4v-1.54
								c0-0.22-0.18-0.4-0.4-0.4h-13.97C299.51,412.47,299.33,412.65,299.33,412.87z"/>
						</g>
					</g>
					<g>
						<g>
							<path class="st7" d="M315.09,415.71v3.28c0,0.13,0.1,0.23,0.23,0.23l4.73-0.08c0.18,0,0.29-0.21,0.18-0.36l-2.21-3.26
								c-0.04-0.06-0.12-0.1-0.2-0.1l-2.52,0.07C315.19,415.48,315.09,415.58,315.09,415.71z"/>
						</g>
					</g>
					<g>
						<g>
							<rect x="298.9" y="423.8" class="st2" width="23.07" height="0.71"/>
						</g>
					</g>
					<g>
						<g>
							<path class="st7" d="M306.53,424.07c0,1.26-1.02,2.28-2.28,2.28c-1.26,0-2.28-1.02-2.28-2.28c0-1.26,1.02-2.28,2.28-2.28
								C305.51,421.79,306.53,422.81,306.53,424.07z"/>
						</g>
					</g>
					<g>
						<g>
							<path class="st2" d="M305.59,424.07c0,0.74-0.6,1.34-1.34,1.34c-0.74,0-1.34-0.6-1.34-1.34c0-0.74,0.6-1.34,1.34-1.34
								C304.99,422.73,305.59,423.33,305.59,424.07z"/>
						</g>
					</g>
					<g>
						<g>
							<g>
								<path class="st9" d="M314.08,423.49c-0.06,0-0.1-2.47-0.1-5.51c0-3.04,0.05-5.51,0.1-5.51c0.06,0,0.1,2.46,0.1,5.51
									C314.18,421.02,314.13,423.49,314.08,423.49z"/>
							</g>
						</g>
					</g>
					<g>
						<g>
							<g>
								<path class="st7" d="M318.96,424.07c0,1.26-1.02,2.28-2.28,2.28s-2.28-1.02-2.28-2.28c0-1.26,1.02-2.28,2.28-2.28
									S318.96,422.81,318.96,424.07z"/>
							</g>
						</g>
						<g>
							<g>
								<path class="st2" d="M318.03,424.07c0,0.74-0.6,1.34-1.34,1.34c-0.74,0-1.34-0.6-1.34-1.34c0-0.74,0.6-1.34,1.34-1.34
									C317.42,422.73,318.03,423.33,318.03,424.07z"/>
							</g>
						</g>
					</g>
					<g>
						<g>
							<g>
								<path class="st9" d="M316.69,419.86c0,0.06-0.33,0.1-0.73,0.1c-0.4,0-0.73-0.05-0.73-0.1c0-0.06,0.33-0.1,0.73-0.1
									C316.36,419.75,316.69,419.8,316.69,419.86z"/>
							</g>
						</g>
					</g>
				</g>
			</g>
		</g>
	</g>
	<text transform="matrix(1 0 0 1 264.9619 107.912)" class="st6 st11 st12">Pizza Dev</text>
</g>
<g id="Character">
	<g>
		<g>
			<g>
				<g>
					<path class="st13" d="M555.34,252.13c0,0,16.13,2.73,17.43,3.07c1.3,0.35,6.41,2.77,6.67,4.33c0.26,1.56,0,6.15,0,6.15
						s-0.92,0.75-1.5-0.75c-0.58-1.5-0.49-4.47-0.49-4.47l-2.86-1.1l1.56,2.77l0.26,6.49c0,0-2-0.18-2.38-1.74
						c-0.39-1.55-0.38-3.29-0.38-3.29l-2.09-1.77l1.56,2.11l0.53,4.68c0,0-1.52,0.49-2-0.55c-0.48-1.04-0.52-4.13-0.52-4.13
						l-5.88-2.05l-3.89,2.17l-7.27-4.11L555.34,252.13z"/>
				</g>
			</g>
			<g>
				<g>
					<g>
						<g>
							<path class="st9" d="M498.86,212.26c0.07,0.32,19.44,26.98,19.44,26.98l38.9,12.1l-1.77,14.61l-47.68-9.6l-16.92-19.42
								L498.86,212.26z"/>
						</g>
					</g>
					<g>
						<g>
							<path class="st7" d="M498.86,212.26c0.07,0.32,19.44,26.98,19.44,26.98l38.9,12.1l-1.77,14.61l-47.68-9.6l-16.92-19.42
								L498.86,212.26z"/>
						</g>
					</g>
				</g>
			</g>
		</g>
		<g>
			<g>
				<g>
					<g>
						<g>
							<path class="st0" d="M431.11,264.44h-79.48c-1.68,0-3.05-1.36-3.05-3.05V252c0-1.68,1.36-3.05,3.05-3.05h79.48
								c1.68,0,3.05,1.36,3.05,3.05v9.39C434.15,263.08,432.79,264.44,431.11,264.44z"/>
						</g>
					</g>
					<g>
						<g>
							<g>
								<path class="st6" d="M431.11,264.44c0-0.02,0.17-0.01,0.5-0.07c0.32-0.07,0.82-0.2,1.33-0.61c0.5-0.39,1.02-1.08,1.12-2.02
									c0.04-0.94,0-2.06,0-3.3c-0.01-1.25-0.01-2.63-0.02-4.15c0-0.76-0.01-1.55-0.01-2.37c-0.02-0.79-0.38-1.59-1.03-2.14
									c-0.32-0.28-0.71-0.48-1.13-0.59c-0.42-0.12-0.87-0.1-1.35-0.1c-0.95,0-1.92,0.01-2.92,0.01c-2.01,0.01-4.13,0.01-6.35,0.02
									c-17.83,0.02-42.44,0.05-69.61,0.08c-0.78-0.01-1.55,0.34-2.06,0.91c-0.53,0.58-0.78,1.34-0.73,2.15c0,1.68,0,3.35,0,5
									c0,0.83,0,1.65,0,2.47l0,1.23c0,0.42,0,0.78,0.1,1.15c0.19,0.72,0.69,1.35,1.34,1.71c0.32,0.18,0.68,0.29,1.05,0.33
									c0.35,0.03,0.78,0.01,1.18,0.02c6.41,0.01,12.59,0.01,18.48,0.02c11.77,0.02,22.38,0.04,31.3,0.06
									c8.89,0.03,16.09,0.06,21.1,0.08c2.47,0.02,4.4,0.04,5.74,0.05c0.64,0.01,1.13,0.02,1.49,0.03
									C430.93,264.42,431.11,264.44,431.11,264.44s-0.17,0.02-0.51,0.03c-0.36,0.01-0.85,0.01-1.49,0.03
									c-1.33,0.01-3.26,0.03-5.74,0.05c-5,0.02-12.21,0.05-21.1,0.08c-8.91,0.02-19.52,0.03-31.3,0.06
									c-5.89,0-12.07,0.01-18.48,0.02c-0.41-0.01-0.78,0.02-1.23-0.02c-0.43-0.05-0.86-0.18-1.24-0.39
									c-0.77-0.42-1.36-1.17-1.59-2.02c-0.12-0.42-0.12-0.89-0.12-1.28l0-1.23c0-0.82,0-1.65,0-2.47c0-1.66,0-3.32,0-5
									c-0.06-0.86,0.24-1.84,0.86-2.5c0.61-0.68,1.53-1.09,2.45-1.08c27.17,0.03,51.78,0.06,69.61,0.08
									c2.23,0.01,4.35,0.01,6.35,0.02c1,0,1.98,0.01,2.92,0.01c0.46,0,0.96-0.02,1.42,0.12c0.46,0.13,0.89,0.35,1.24,0.66
									c0.71,0.61,1.1,1.49,1.11,2.35c0,0.82,0,1.61-0.01,2.37c-0.01,1.51-0.02,2.9-0.02,4.15c-0.02,1.25,0.01,2.34-0.05,3.32
									c-0.13,0.99-0.68,1.69-1.21,2.09c-0.54,0.41-1.05,0.52-1.38,0.58C431.28,264.47,431.11,264.44,431.11,264.44z"/>
							</g>
						</g>
					</g>
				</g>
				<g>
					<g>
						<g>
							<g>
								<g>
									<g>
										<g>
											
												<ellipse transform="matrix(0.9988 -0.048 0.048 0.9988 -19.4775 31.4218)" class="st6" cx="644.95" cy="421.54" rx="40.89" ry="40.89"/>
										</g>
									</g>
								</g>
							</g>
						</g>
					</g>
					<g>
						<g>
							<g>
								<g>
									<g>
										<g>
											<path class="st6" d="M604.08,420.84c0,0.04-0.01,0.07-0.01,0.11c-0.33,22.58,17.71,41.15,40.29,41.47
												c22.58,0.33,41.15-17.71,41.47-40.29c0-0.04,0-0.07,0-0.11L604.08,420.84z"/>
										</g>
									</g>
								</g>
							</g>
						</g>
					</g>
					<g>
						<g>
							<g>
								<g>
									<g>
										<g>
											<path class="st2" d="M616.25,421.12c-0.23,15.85,12.44,28.89,28.29,29.12c15.85,0.23,28.89-12.44,29.12-28.29
												c0.23-15.85-12.44-28.89-28.29-29.12C629.52,392.6,616.48,405.27,616.25,421.12z"/>
										</g>
									</g>
								</g>
							</g>
						</g>
					</g>
					<g>
						<g>
							<g>
								<g>
									<g>
										<g>
											<path class="st3" d="M645.37,392.83c-15.85-0.23-28.89,12.44-29.12,28.29l57.41,0.83
												C673.89,406.1,661.22,393.06,645.37,392.83z"/>
										</g>
									</g>
								</g>
							</g>
						</g>
					</g>
					<g>
						<g>
							<g>
								<g>
									<g>
										<g>
											<path class="st6" d="M627.47,421.28c-0.14,9.66,7.58,17.6,17.23,17.74c9.66,0.14,17.6-7.58,17.74-17.23
												c0.14-9.66-7.58-17.6-17.23-17.74C635.55,403.91,627.61,411.63,627.47,421.28z"/>
										</g>
									</g>
								</g>
							</g>
						</g>
					</g>
				</g>
				<g>
					<g>
						<path class="st7" d="M625.55,361.58c0,0,41.86-12.66,59.18,32.82l-87.6,27.13L625.55,361.58z"/>
					</g>
				</g>
				<g>
					<g>
						<g>
							<g>
								<g>
									<g>
										<g>
											
												<ellipse transform="matrix(0.9988 -0.048 0.048 0.9988 -19.7679 19.3204)" class="st6" cx="392.67" cy="421.54" rx="40.89" ry="40.89"/>
										</g>
									</g>
								</g>
							</g>
						</g>
					</g>
					<g>
						<g>
							<g>
								<g>
									<g>
										<g>
											<path class="st6" d="M351.79,420.84c0,0.04-0.01,0.07-0.01,0.11c-0.33,22.58,17.71,41.15,40.29,41.47
												c22.58,0.33,41.15-17.71,41.47-40.29c0-0.04,0-0.07,0-0.11L351.79,420.84z"/>
										</g>
									</g>
								</g>
							</g>
						</g>
					</g>
					<g>
						<g>
							<g>
								<g>
									<g>
										<g>
											<path class="st2" d="M363.96,421.12c-0.23,15.85,12.44,28.89,28.29,29.12c15.85,0.23,28.89-12.44,29.12-28.29
												c0.23-15.85-12.44-28.89-28.29-29.12C377.23,392.6,364.19,405.27,363.96,421.12z"/>
										</g>
									</g>
								</g>
							</g>
						</g>
					</g>
					<g>
						<g>
							<g>
								<g>
									<g>
										<g>
											<path class="st3" d="M393.08,392.83c-15.85-0.23-28.89,12.44-29.12,28.29l57.41,0.83
												C421.6,406.1,408.93,393.06,393.08,392.83z"/>
										</g>
									</g>
								</g>
							</g>
						</g>
					</g>
					<g>
						<g>
							<g>
								<g>
									<g>
										<g>
											<path class="st6" d="M375.18,421.28c-0.14,9.66,7.58,17.6,17.23,17.74c9.66,0.14,17.6-7.58,17.74-17.23
												c0.14-9.66-7.58-17.6-17.23-17.74C383.26,403.91,375.32,411.63,375.18,421.28z"/>
										</g>
									</g>
								</g>
							</g>
						</g>
					</g>
				</g>
				<g>
					<g>
						<path class="st14" d="M450.83,405.12c-0.23,0.12-21.52-3.29-21.52-3.29l0,0c-2.33,3.04-5.89,4.9-9.71,5.08
							c-9.2,0.44-18.19,0.85-25.98,1.19c-7.26,0.32-12.89,6.47-12.59,13.73l0,0.01c0.29,6.87,5.8,12.36,12.67,12.63l45.28,1.78
							c7.45,0.29,17.34-4.23,21.99-10.06l0,0L450.83,405.12z"/>
					</g>
				</g>
				<g>
					<g>
						<path class="st7" d="M339.58,387.03c0,0-1.95-39.85,35.5-48.15v-5.11h131.19v12.18c0,0-19.26,23.19-12.97,42.44
							c6.29,19.26,8.25,21.22,8.25,21.22h74.66c0,0,9.04-11.4,9.43-28.29c0.39-16.9-6.63-45.79-11.87-64.26
							c-4.77-16.79-7.78-30.84-7.78-30.84l22.4-7.47c0,0,41.45,54.19,43.14,57.24c1.69,3.05,7.45,10.16,6.09,25.73
							c-1.35,15.58-38.6,63.66-48.42,69.07c-9.82,5.42-18.62,5.76-27.43,7.11c-7.64,1.18-64.17,0.4-78.95,0.17
							c-5.14-0.08-10.21-1.39-14.6-4.05c-4.42-2.68-7.75-7.12-11.42-14.4l-7.79-15.24L339.58,387.03z"/>
					</g>
				</g>
				<g>
					<g>
						<path class="st14" d="M349.62,384.26l-16.53,25.88c-2.12,3.31,1.31,7.48,4.91,5.92c1.75-0.76,3.63-1.94,5.54-3.76
							c7.56-7.19,21.03-26.13,21.03-26.13L349.62,384.26z"/>
					</g>
				</g>
				<g>
					<g>
						<g>
							<path class="st6" d="M468.11,388.92c-0.01,0,0.02-0.13,0.1-0.38c0.08-0.27,0.19-0.63,0.33-1.09
								c0.28-0.96,0.62-2.39,0.87-4.27c0.42-3.73,0.23-9.42-2.56-15.62c-1.36-3.09-3.37-6.25-6.09-9.15
								c-2.73-2.88-6.1-5.54-10.04-7.66c-3.92-2.13-8.36-3.81-13.1-4.88c-4.75-1.07-9.8-1.55-14.97-1.55
								c-5.17,0-10.21,0.46-15.05,1.1c-4.84,0.65-9.48,1.45-13.86,2.45c-8.75,1.97-16.36,4.88-22.25,8.23
								c-5.91,3.33-10.1,6.97-12.72,9.7c-1.32,1.36-2.27,2.49-2.9,3.27c-0.3,0.37-0.53,0.67-0.71,0.89c-0.16,0.2-0.25,0.3-0.26,0.29
								c0,0,1.12-1.8,3.72-4.59c2.58-2.79,6.76-6.49,12.68-9.88c5.9-3.42,13.55-6.38,22.33-8.38c4.39-1.01,9.04-1.83,13.9-2.49
								c4.85-0.65,9.92-1.12,15.12-1.12c5.2,0,10.29,0.49,15.08,1.57c4.79,1.08,9.26,2.78,13.22,4.95
								c3.97,2.15,7.38,4.86,10.13,7.79c2.74,2.95,4.76,6.16,6.11,9.3c2.77,6.29,2.91,12.05,2.42,15.79
								c-0.28,1.89-0.65,3.33-0.97,4.28c-0.16,0.45-0.29,0.81-0.38,1.07C468.17,388.8,468.12,388.92,468.11,388.92z"/>
						</g>
					</g>
				</g>
				<g>
					<g>
						<g>
							<path class="st0" d="M460.56,379.97c-0.06-0.02,0.22-0.63,0.49-1.77c0.31-1.14,0.44-2.87,0.15-4.95
								c-0.29-2.09-1.09-4.5-2.44-6.95c-0.66-1.23-1.47-2.45-2.42-3.64c-0.93-1.2-2.02-2.34-3.25-3.37
								c-2.47-2.07-5.21-3.53-7.8-4.56c-2.61-1.01-5.07-1.61-7.16-1.96c-2.09-0.35-3.81-0.5-4.99-0.57
								c-1.19-0.07-1.84-0.1-1.84-0.14c0-0.02,0.16-0.03,0.48-0.05c0.31-0.01,0.78-0.03,1.37-0.02c1.19,0.01,2.92,0.1,5.04,0.41
								c2.12,0.3,4.62,0.87,7.28,1.87c2.64,1.03,5.44,2.5,7.96,4.61c1.26,1.06,2.37,2.22,3.32,3.45c0.96,1.21,1.78,2.47,2.44,3.73
								c1.35,2.5,2.13,4.98,2.38,7.13c0.25,2.14,0.06,3.91-0.32,5.05c-0.12,0.59-0.37,1-0.48,1.3
								C460.65,379.83,460.57,379.98,460.56,379.97z"/>
						</g>
					</g>
				</g>
				<g class="st15">
					<g>
						<g>
							<path d="M434.87,345.06c7.33,1.4,13.74,4.03,19.75,8.04c6.01,4.01,10.62,9.7,13.23,16.44c2.62,6.74,2.23,15.67-0.53,21.25
								l9.27,0.77c3.12-10.41-0.28-23.18-7.78-31.33C460.02,350.67,447.92,345.06,434.87,345.06"/>
						</g>
					</g>
				</g>
				<g>
					<g>
						<path class="st14" d="M431.91,333.77h-81.09c-4.74,0-8.58-3.84-8.58-8.58v-52.95c0-4.74,3.84-8.58,8.58-8.58h81.09
							c4.74,0,8.58,3.84,8.58,8.58v52.95C440.49,329.93,436.65,333.77,431.91,333.77z"/>
					</g>
				</g>
				<g>
					<g>
						<g>
							<path class="st6" d="M440.49,279.3c0,0.14-22.09,0.26-49.33,0.26c-27.25,0-49.34-0.12-49.34-0.26
								c0-0.14,22.09-0.26,49.34-0.26C418.4,279.04,440.49,279.16,440.49,279.3z"/>
						</g>
					</g>
				</g>
				<g>
					<g>
						<g>
							<path class="st6" d="M506.21,338.41c0,0.14-29.48,0.26-65.85,0.26c-36.38,0-65.85-0.12-65.85-0.26s29.48-0.26,65.85-0.26
								C476.72,338.15,506.21,338.27,506.21,338.41z"/>
						</g>
					</g>
				</g>
				<g>
					<g>
						<path class="st14" d="M506.27,333.77c0,0,2.16-2.58,2.37-5.88c0.21-3.3-1.3-7.41-4.84-7.41h-45.3
							c-7.34,0-13.29,5.95-13.29,13.29l0,0H506.27z"/>
					</g>
				</g>
				<g>
					<g>
						<path class="st7" d="M566.01,286.22l-7.88-16.43c-2.15-4.67-0.44-10.22,3.98-12.85l23.56-14.05c1.23-0.73,2.64-1.12,4.07-1.12
							h5.09l2.04,33.21l-7.85,3l4.97,8.08L566.01,286.22z"/>
					</g>
				</g>
				<g>
					<g>
						<path class="st1" d="M594.91,242.97c0,0,8.06,1.85,9.07,14.27c1.01,12.43-7.11,16.29-7.11,16.29L594.91,242.97z"/>
					</g>
				</g>
				<g>
					<g>
						<path class="st6" d="M568.75,263.35c0,0-16.29,7.72-18.28,8.99c-1.38,0.88-2.56,2.42-1.48,5.13c1.85,4.62,9.46,0.27,9.46,0.27
							l15.16-7.58c0,0,5.83-2.75,3.68-6.2C574.88,260.11,568.75,263.35,568.75,263.35z"/>
					</g>
				</g>
				<g>
					<g>
						<path class="st13" d="M545.69,260.54c0,0,15.3,2.62,16.6,2.97s6.41,2.77,6.67,4.33c0.26,1.56,0,6.15,0,6.15
							s-0.92,0.75-1.5-0.75c-0.58-1.5-0.49-4.47-0.49-4.47l-2.86-1.1l1.56,2.77l0.26,6.49c0,0-2-0.18-2.38-1.74
							c-0.39-1.55-0.38-3.29-0.38-3.29l-2.08-1.77l1.56,2.11l0.53,4.68c0,0-1.52,0.49-2-0.55c-0.48-1.04-0.52-4.13-0.52-4.13
							l-5.88-2.05l-3.89,2.17l-6.12-3.35L545.69,260.54z"/>
					</g>
				</g>
				<g>
					<g>
						<path class="st6" d="M569.53,239.22c0,6.2-2.85,11.22-6.36,11.22c-3.51,0-6.36-5.02-6.36-11.22s2.85-11.22,6.36-11.22
							C566.68,228,569.53,233.03,569.53,239.22z"/>
					</g>
				</g>
				<g>
					<g>
						<path class="st6" d="M564.21,246.93l3.49,12.11c1.56-0.79,1.89-2.35,1.63-3.58c-0.88-4.15-1.37-7.1-2.34-10.74
							C566.88,244.37,564.21,246.93,564.21,246.93"/>
					</g>
				</g>
				<g class="st15">
					<g>
						<path d="M495.03,393.57c-0.35-1-0.7-2.02-1.03-3.07c-0.31-0.98-0.68-1.99-0.94-2.96c-0.48-1.74-0.76-3.53-0.87-4.56
							c-5.9,24.02,3.11,40.93,18.57,42.12c22.59,1.74,50.14,3,61.28,0.08c20.31-5.33,27.76-22.26,29.54-25.06
							c1.78-2.79,17.93-32.32,8.03-60.75c-9.9-28.43-27.16-58.62-27.16-58.62l-16.45,5.48c0,0,3.01,14.04,7.78,30.84
							c5.24,18.47,12.26,47.36,11.87,64.26c-0.39,16.9-9.43,28.29-9.43,28.29h-74.66C501.56,409.61,499.96,408.01,495.03,393.57"/>
					</g>
				</g>
				<g>
					<g>
						<path class="st9" d="M336.6,380.78l0.53-5.7l136.28,15.7c7.69,0.9,13.04,8.09,11.69,15.72l-0.61,3.45l-141.05-20.5
							C339.21,388.84,336.21,385.03,336.6,380.78z"/>
					</g>
				</g>
				<g class="st10">
					<g>
						<path d="M336.6,380.78l0.53-5.7l136.28,15.7c7.69,0.9,13.04,8.09,11.69,15.72l-0.61,3.45l-141.05-20.5
							C339.21,388.84,336.21,385.03,336.6,380.78z"/>
					</g>
				</g>
				<g class="st16">
					<g>
						<g>
							<path d="M601.58,418.9c0,0,30-33,36.19-58.94c2.08-0.02,6.92,0.19,9.29,0.69C647.06,360.65,629.32,408.88,601.58,418.9z"/>
						</g>
					</g>
				</g>
				<g>
					<g>
						<g>
							<path class="st6" d="M637.33,348.34c0.02,0,0.07,0.28,0.16,0.83c0.08,0.55,0.24,1.36,0.34,2.41c0.19,2.1,0.32,5.2-0.23,8.96
								c-0.54,3.76-1.83,8.14-3.96,12.68c-2.08,4.56-4.96,9.27-7.94,14.2c-6.01,9.89-12.7,17.97-17.56,23.75
								c-2.44,2.88-4.46,5.18-5.86,6.77c-0.68,0.76-1.22,1.36-1.62,1.81c-0.38,0.41-0.58,0.62-0.59,0.61
								c-0.01-0.01,0.16-0.24,0.51-0.68c0.38-0.46,0.9-1.09,1.55-1.88c1.39-1.66,3.33-4,5.73-6.87c4.79-5.83,11.41-13.94,17.4-23.78
								c2.99-4.93,5.86-9.61,7.95-14.13c2.14-4.5,3.45-8.82,4.03-12.53c0.6-3.72,0.53-6.78,0.39-8.88c-0.07-1.05-0.2-1.86-0.24-2.42
								C637.33,348.63,637.31,348.34,637.33,348.34z"/>
						</g>
					</g>
				</g>
				<g>
					<g>
						<g>
							<path class="st6" d="M585.47,418.66c-0.1,0.1-2.25-1.84-4.8-4.34c-2.55-2.5-4.54-4.61-4.44-4.71c0.1-0.1,2.25,1.84,4.81,4.34
								C583.58,416.45,585.57,418.56,585.47,418.66z"/>
						</g>
					</g>
				</g>
				<g>
					<g>
						<g>
							<path class="st6" d="M496.43,417.65c-0.12-0.06,0.7-2.07,2.2-4.27c1.49-2.21,3.06-3.72,3.15-3.62
								c0.11,0.1-1.26,1.74-2.72,3.92C497.59,415.84,496.57,417.71,496.43,417.65z"/>
						</g>
					</g>
				</g>
				<g>
					<g>
						<g>
							<path class="st6" d="M438.79,436.7c-0.12-0.1,2.15-1.55,4.09-5.2c0.97-1.8,1.76-4.15,2.01-6.85
								c0.25-2.68-0.14-5.72-1.46-8.54c-1.37-2.8-3.48-5.01-5.72-6.51c-2.25-1.51-4.57-2.37-6.58-2.75
								c-4.06-0.79-6.61,0.07-6.62-0.09c0-0.02,0.15-0.06,0.45-0.13c0.3-0.06,0.73-0.2,1.31-0.25c1.15-0.18,2.86-0.23,4.92,0.12
								c2.06,0.34,4.46,1.19,6.78,2.71c2.32,1.51,4.51,3.78,5.92,6.68c1.36,2.92,1.74,6.05,1.46,8.81
								c-0.27,2.76-1.13,5.16-2.16,6.98c-1.02,1.82-2.14,3.12-3.01,3.9c-0.41,0.42-0.79,0.66-1.03,0.86
								C438.94,436.62,438.8,436.71,438.79,436.7z"/>
						</g>
					</g>
				</g>
				<g>
					<g>
						<g>
							<path class="st6" d="M389.03,426.25c-0.14,0.01-0.36-2.15-0.49-4.81c-0.13-2.66-0.11-4.82,0.03-4.83
								c0.14-0.01,0.36,2.14,0.49,4.81C389.18,424.08,389.17,426.24,389.03,426.25z"/>
						</g>
					</g>
				</g>
				<g>
					<g>
						<g>
							<path class="st6" d="M392.64,426.26c-0.14,0.02-0.53-2.13-0.87-4.79c-0.34-2.67-0.5-4.84-0.36-4.86
								c0.14-0.02,0.53,2.13,0.87,4.8C392.62,424.06,392.78,426.24,392.64,426.26z"/>
						</g>
					</g>
				</g>
				<g>
					<g>
						<g>
							<path class="st6" d="M448.85,333.77c0,0.14-16.57,0.26-37,0.26c-20.44,0-37.01-0.12-37.01-0.26s16.57-0.26,37.01-0.26
								C432.28,333.51,448.85,333.62,448.85,333.77z"/>
						</g>
					</g>
				</g>
				<g>
					<g>
						<g>
							<path class="st6" d="M395.19,333.72c-0.14,0-0.26-18.98-0.26-42.38c0-23.41,0.12-42.39,0.26-42.39
								c0.14,0,0.26,18.97,0.26,42.39C395.45,314.74,395.33,333.72,395.19,333.72z"/>
						</g>
					</g>
				</g>
				<g>
					<g>
						<g>
							<path class="st6" d="M385.04,333.65c-0.14-0.01,0.57-18.97,1.58-42.36c1.02-23.39,1.96-42.35,2.1-42.34
								c0.14,0.01-0.57,18.97-1.58,42.36C386.13,314.7,385.19,333.66,385.04,333.65z"/>
						</g>
					</g>
				</g>
			</g>
			<g>
				<g>
					<g>
						<g>
							<path class="st14" d="M362.09,449.3c-0.01,0.01-0.16-0.14-0.44-0.44c-0.27-0.31-0.69-0.74-1.17-1.35
								c-0.99-1.19-2.31-3.01-3.69-5.42c-2.76-4.77-5.5-12.23-5.47-20.76c0.04-8.54,2.84-15.97,5.64-20.72
								c1.4-2.4,2.74-4.21,3.73-5.39c0.48-0.61,0.91-1.03,1.18-1.34c0.28-0.3,0.43-0.45,0.44-0.44c0.01,0.01-0.11,0.19-0.36,0.51
								c-0.24,0.33-0.65,0.77-1.1,1.39c-0.94,1.22-2.23,3.05-3.57,5.45c-2.7,4.76-5.41,12.11-5.44,20.54
								c-0.03,8.42,2.61,15.8,5.27,20.58c1.32,2.41,2.59,4.25,3.53,5.48c0.45,0.63,0.85,1.08,1.09,1.4
								C361.98,449.11,362.11,449.28,362.09,449.3z"/>
						</g>
					</g>
				</g>
			</g>
		</g>
		<g>
			<g>
				<g>
					<g>
						<g>
							<g>
								<g>
									<g>
										<path class="st14" d="M505.35,373.11l-0.31,0.59l-6.02,11.33l-8.44,8.13l16.87,22.46l14.06-2.33c0,0-1.58-3.21-8.63-3.83
											l-2.7-13.42l9.91-15.36"/>
									</g>
								</g>
							</g>
							<g>
								<g>
									<g>
										<polygon class="st3" points="490.58,393.15 507.45,415.61 521.5,413.28 519.57,411.43 508.04,412.69 492.38,391.42 
																					"/>
									</g>
								</g>
							</g>
						</g>
						<g>
							<g>
								<g>
									<g>
										<path class="st6" d="M511.75,403.28c-0.08,0.16-0.97-0.16-2.05,0.05c-1.09,0.18-1.8,0.8-1.94,0.67
											c-0.15-0.08,0.5-1.06,1.82-1.29C510.91,402.46,511.86,403.15,511.75,403.28z"/>
									</g>
								</g>
							</g>
						</g>
						<g>
							<g>
								<g>
									<g>
										<path class="st6" d="M510.97,399.97c-0.12,0.12-0.89-0.6-2.04-0.63c-1.16-0.04-1.97,0.63-2.08,0.5
											c-0.06-0.06,0.06-0.32,0.42-0.6c0.35-0.28,0.96-0.55,1.68-0.53c0.72,0.02,1.31,0.33,1.64,0.64
											C510.93,399.65,511.03,399.92,510.97,399.97z"/>
									</g>
								</g>
							</g>
						</g>
						<g>
							<g>
								<g>
									<g>
										<path class="st6" d="M510.35,395.65c-0.14,0.1-0.76-0.63-1.79-0.8c-1.03-0.19-1.86,0.29-1.96,0.14
											c-0.05-0.06,0.1-0.29,0.46-0.5c0.36-0.21,0.95-0.38,1.61-0.26c0.65,0.12,1.15,0.47,1.42,0.79
											C510.36,395.35,510.42,395.61,510.35,395.65z"/>
									</g>
								</g>
							</g>
						</g>
						<g>
							<g>
								<g>
									<g>
										<path class="st6" d="M513.55,391.7c-0.16,0.09-0.69-0.65-1.65-1.07c-0.95-0.45-1.85-0.36-1.89-0.53
											c-0.07-0.15,0.97-0.58,2.15-0.04C513.34,390.58,513.72,391.65,513.55,391.7z"/>
									</g>
								</g>
							</g>
						</g>
						<g>
							<g>
								<g>
									<g>
										<path class="st6" d="M514.91,388.51c-0.06,0.06-0.62-0.43-1.47-1.27c-0.48-0.49-0.97-0.99-1.47-1.49
											c-0.26-0.3-0.59-0.54-0.84-1.03c-0.12-0.25-0.16-0.56-0.06-0.87c0.09-0.32,0.46-0.58,0.77-0.58
											c0.63-0.01,1.02,0.25,1.43,0.46c0.39,0.24,0.73,0.53,1.02,0.83c0.57,0.62,0.9,1.31,1.07,1.91c0.34,1.22,0.05,2,0,1.97
											c-0.11-0.01,0-0.76-0.42-1.83c-0.21-0.53-0.55-1.12-1.07-1.65c-0.26-0.26-0.57-0.5-0.91-0.7
											c-0.33-0.19-0.76-0.39-1.06-0.37c-0.14,0.02-0.2,0.07-0.24,0.17c-0.04,0.11-0.03,0.27,0.03,0.4
											c0.13,0.29,0.45,0.59,0.71,0.89c0.47,0.54,0.92,1.06,1.37,1.58C514.53,387.85,514.97,388.45,514.91,388.51z"/>
									</g>
								</g>
							</g>
						</g>
						<g>
							<g>
								<g>
									<g>
										<path class="st6" d="M515.48,388.84c-0.07,0.01-0.14-0.74,0.48-1.71c0.61-0.92,2.09-2.05,4.04-1.44
											c0.15,0.09,0.28,0.27,0.3,0.47c0.02,0.2-0.03,0.35-0.1,0.47c-0.13,0.25-0.3,0.38-0.43,0.53c-0.29,0.28-0.59,0.53-0.9,0.73
											c-0.61,0.41-1.23,0.67-1.76,0.82c-1.07,0.3-1.77,0.2-1.76,0.13c-0.01-0.1,0.66-0.16,1.62-0.55
											c0.48-0.19,1.03-0.47,1.57-0.88c0.27-0.2,0.54-0.43,0.8-0.69c0.13-0.14,0.26-0.27,0.31-0.38c0.05-0.13,0.04-0.1,0.01-0.13
											c-0.05-0.04-0.25-0.07-0.43-0.08c-0.18-0.01-0.36-0.01-0.53,0.01c-0.35,0.03-0.68,0.12-0.99,0.24
											c-0.61,0.24-1.07,0.63-1.39,1.02C515.68,388.18,515.58,388.86,515.48,388.84z"/>
									</g>
								</g>
							</g>
						</g>
						<g>
							<g>
								<g>
									<path class="st3" d="M501.72,390.86c0.15,0.92-0.47,1.79-1.39,1.95c-0.92,0.15-1.79-0.47-1.95-1.39
										c-0.15-0.92,0.47-1.79,1.39-1.95C500.7,389.32,501.57,389.94,501.72,390.86z"/>
								</g>
							</g>
						</g>
					</g>
				</g>
				<g>
					<g>
						<g>
							<g>
								<g>
									<path class="st14" d="M556.55,383.91l4.51,29.28l36.46-5.42c-0.73-3.45-20.64-7.64-20.64-7.64l-2.12-18.88L556.55,383.91z"
										/>
								</g>
							</g>
						</g>
						<g>
							<g>
								<g>
									<g>
										<path class="st3" d="M565.38,400.23c-0.68,0.3-1.05,1.16-0.78,1.85c0.27,0.69,1.15,1.07,1.83,0.79
											c0.68-0.29,1.16-1.31,0.81-1.97c-0.35-0.65-1.4-1.05-1.99-0.61"/>
									</g>
								</g>
							</g>
						</g>
						<g>
							<g>
								<g>
									<path class="st3" d="M561.06,413.19l-0.34-2.97l35.09-4.09c0,0,1.73,0.46,1.72,1.64L561.06,413.19z"/>
								</g>
							</g>
						</g>
						<g>
							<g>
								<g>
									<g>
										<path class="st6" d="M577.45,399.86c0.02,0.18-0.86,0.39-1.65,1.1c-0.81,0.68-1.15,1.52-1.32,1.47
											c-0.17-0.01-0.06-1.11,0.91-1.95C576.36,399.64,577.47,399.69,577.45,399.86z"/>
									</g>
								</g>
							</g>
						</g>
						<g>
							<g>
								<g>
									<g>
										<path class="st6" d="M581.51,400.87c0.07,0.17-0.66,0.58-1.15,1.43c-0.52,0.83-0.55,1.67-0.73,1.68
											c-0.16,0.05-0.44-0.97,0.19-2.01C580.45,400.93,581.48,400.7,581.51,400.87z"/>
									</g>
								</g>
							</g>
						</g>
						<g>
							<g>
								<g>
									<g>
										<path class="st6" d="M584.37,405.12c-0.16,0.06-0.54-0.79-0.22-1.83c0.3-1.05,1.09-1.56,1.18-1.42
											c0.12,0.13-0.34,0.74-0.58,1.6C584.48,404.32,584.54,405.08,584.37,405.12z"/>
									</g>
								</g>
							</g>
						</g>
						<g>
							<g>
								<g>
									<g>
										<path class="st6" d="M576.49,395.61c-0.05,0.17-0.9,0.05-1.9,0.27c-1,0.2-1.73,0.65-1.85,0.51
											c-0.12-0.11,0.54-0.89,1.72-1.13C575.64,395.01,576.56,395.45,576.49,395.61z"/>
									</g>
								</g>
							</g>
						</g>
						<g>
							<g>
								<g>
									<g>
										<path class="st6" d="M574.98,391.41c0.01,0.07-0.67,0.29-1.83,0.26c-0.57-0.01-1.26-0.1-2-0.3
											c-0.37-0.1-0.75-0.23-1.13-0.4c-0.18-0.08-0.4-0.16-0.62-0.35c-0.23-0.16-0.41-0.61-0.22-0.93
											c0.15-0.31,0.46-0.48,0.72-0.52c0.27-0.05,0.49-0.03,0.7-0.01c0.42,0.04,0.82,0.12,1.19,0.22
											c0.74,0.21,1.37,0.53,1.85,0.85c0.96,0.66,1.35,1.28,1.29,1.32c-0.07,0.07-0.57-0.43-1.52-0.94
											c-0.48-0.26-1.08-0.51-1.77-0.68c-0.35-0.08-0.71-0.14-1.1-0.17c-0.4-0.04-0.73,0-0.8,0.19c-0.03,0.07-0.03,0.1,0.07,0.2
											c0.1,0.09,0.27,0.17,0.45,0.25c0.35,0.16,0.71,0.3,1.05,0.41c0.68,0.22,1.32,0.35,1.87,0.41
											C574.27,391.37,574.97,391.31,574.98,391.41z"/>
									</g>
								</g>
							</g>
						</g>
						<g>
							<g>
								<g>
									<g>
										<path class="st6" d="M574.79,391.7c-0.06,0.04-0.51-0.55-0.74-1.69c-0.12-0.57-0.16-1.27-0.05-2.04
											c0.06-0.38,0.15-0.78,0.3-1.18c0.16-0.39,0.35-0.91,1.03-1.1c0.36-0.07,0.7,0.17,0.84,0.4c0.16,0.23,0.21,0.44,0.29,0.64
											c0.13,0.42,0.18,0.83,0.18,1.23c0,0.79-0.22,1.49-0.5,2c-0.57,1.05-1.28,1.37-1.31,1.32c-0.07-0.08,0.5-0.52,0.91-1.51
											c0.2-0.49,0.35-1.11,0.32-1.8c-0.01-0.34-0.07-0.7-0.19-1.05c-0.11-0.38-0.31-0.67-0.45-0.61
											c-0.18,0.02-0.45,0.36-0.55,0.69c-0.14,0.35-0.24,0.71-0.31,1.06c-0.13,0.69-0.14,1.34-0.08,1.87
											C574.59,391.02,574.88,391.66,574.79,391.7z"/>
									</g>
								</g>
							</g>
						</g>
					</g>
				</g>
				<g>
					<g>
						<polyline class="st6" points="527.86,315.13 496.59,383.27 517.24,395.66 560.48,313.68 						"/>
					</g>
				</g>
				<g>
					<g>
						<path class="st6" d="M579.43,397.22l-22.44,3.6l-13.43-80.14l-66.35,4.81c-1.76,0.11-3.53-0.04-5.23-0.51
							c-18.64-5.11-16.11-28.86-14.32-32.67l91.81-2.64c9.96-0.29,18.54,6.96,19.92,16.83L579.43,397.22z"/>
					</g>
				</g>
				<g>
					<g>
						<g>
							<g>
								<g>
									<g>
										<g>
											<g>
												<g>
													<g>
														<path class="st7" d="M456.76,296.08l0.33-33.88c0,0-4.37-22.03-5.67-30.69c-2.01-13.45-4.76-19.83,17.26-29.39
															l4.81-1.86l7.45,0.1c8.89,0.67,18.25,8.7,18.46,14.03l8.57,76.35L456.76,296.08z"/>
													</g>
												</g>
											</g>
										</g>
									</g>
								</g>
							</g>
						</g>
					</g>
				</g>
				<g>
					<g>
						<g>
							<g>
								<path class="st7" d="M458.14,210c0,0-6.21,13.38-4.97,25.57l23.17,22.24c5.2,5.78,11.69,8.24,20,8.74l47.94,5.24l1.33-12.54
									L500,246.33c-1.81-0.33-2.72-2.23-4.11-3.44L458.14,210"/>
							</g>
						</g>
					</g>
				</g>
				<g>
					<g>
						<g>
							<path class="st6" d="M454.39,213.86c0,0,0.26-0.29,0.92-0.62c0.66-0.32,1.7-0.65,3.1-0.87c1.39-0.2,3.15-0.35,5.18,0.01
								c0.5,0.12,1.03,0.24,1.52,0.52c0.48,0.28,0.94,0.61,1.41,0.96c0.93,0.72,1.86,1.54,2.8,2.45c1.92,1.79,3.74,4.06,5.87,6.36
								c2.12,2.31,4.46,4.77,7,7.36c2.53,2.59,5.26,5.3,8.19,8.1c1.47,1.39,2.98,2.81,4.58,4.2c0.81,0.67,1.61,1.45,2.38,2.18
								c0.78,0.72,1.67,1.39,2.69,1.58l0.01,0l0.01,0c13.56,3.83,29.12,8.23,45.61,12.9l0.21,0.06l-0.02,0.22
								c-0.09,0.89-0.2,1.85-0.3,2.81c-0.35,3.33-0.7,6.63-1.03,9.73l-0.03,0.26l-0.26-0.03c-6.97-0.77-13.76-1.51-20.29-2.23
								c-3.27-0.36-6.47-0.71-9.6-1.06c-3.14-0.32-6.2-0.63-9.19-0.93c-2.99-0.33-5.89-0.67-8.7-1.08
								c-2.81-0.41-5.54-0.93-8.05-1.87c-2.52-0.92-4.77-2.24-6.79-3.64c-2.03-1.41-3.87-2.88-5.6-4.33
								c-6.85-5.85-11.88-11.07-15.37-14.63c-1.73-1.79-3.06-3.2-3.95-4.16c-0.43-0.47-0.76-0.84-1-1.1
								c-0.22-0.25-0.33-0.39-0.33-0.39s0.13,0.11,0.36,0.35c0.25,0.25,0.59,0.61,1.04,1.07c0.93,0.95,2.28,2.33,4.01,4.1
								c3.53,3.52,8.6,8.7,15.46,14.5c1.73,1.43,3.58,2.89,5.6,4.28c2.01,1.39,4.23,2.68,6.71,3.57c2.48,0.92,5.17,1.42,7.98,1.82
								c2.8,0.4,5.7,0.74,8.69,1.06c2.99,0.3,6.05,0.6,9.19,0.91c3.13,0.34,6.34,0.69,9.6,1.04c6.53,0.71,13.32,1.45,20.3,2.21
								l-0.29,0.23c0.33-3.1,0.68-6.4,1.03-9.73c0.1-0.96,0.2-1.92,0.3-2.81l0.19,0.28c-16.49-4.68-32.04-9.1-45.6-12.95l0.02,0.01
								c-1.18-0.22-2.12-0.96-2.92-1.7c-0.81-0.77-1.54-1.49-2.37-2.18c-1.6-1.4-3.12-2.83-4.59-4.23
								c-2.92-2.81-5.64-5.54-8.17-8.14c-2.52-2.6-4.85-5.07-6.97-7.4c-2.13-2.32-3.92-4.59-5.81-6.38
								c-0.93-0.91-1.85-1.74-2.76-2.45c-0.46-0.35-0.91-0.69-1.37-0.96c-0.45-0.27-0.97-0.39-1.45-0.51
								c-1.98-0.38-3.74-0.25-5.12-0.08c-1.39,0.19-2.43,0.49-3.09,0.79C454.68,213.61,454.41,213.88,454.39,213.86z"/>
						</g>
					</g>
				</g>
			</g>
			<g>
				<g>
					<g>
						<g>
							<g>
								<g>
									<g>
										<g>
											<g>
												<g>
													<g>
														<g>
															<g>
																<g>
																	<g>
																		<g>
																			<g>
																				<g>
																					<g>
																						<path class="st13" d="M466.36,170.88l2.33,32.98c0.38,5.38,4.86,9.56,10.26,9.56l0,0
																							c5.94,0,10.65-5.03,10.26-10.96c-0.21-3.14-0.39-5.71-0.39-5.71s7.98-1.24,8.08-9.22
																							c0.06-4.61-0.74-15.07-1.42-23.09c-0.46-5.42-5-9.58-10.44-9.58h-4.82
																							C471.91,155.35,465.64,162.6,466.36,170.88z"/>
																					</g>
																				</g>
																			</g>
																		</g>
																	</g>
																</g>
															</g>
														</g>
													</g>
												</g>
											</g>
											<g>
												<g>
													<g>
														<g>
															<g>
																<g>
																	<g>
																		<g>
																			<g>
																				<g>
																					<g>
																						<path class="st17" d="M488.82,196.64c0,0-5.05,0.41-10.41-2.96c0,0,2.46,5.75,10.43,5.03L488.82,196.64z"/>
																					</g>
																				</g>
																			</g>
																		</g>
																	</g>
																</g>
															</g>
														</g>
													</g>
												</g>
											</g>
										</g>
									</g>
								</g>
								<g>
									<g>
										<g>
											<g>
												<g>
													<g>
														<g>
															<g>
																<g>
																	<g>
																		<g>
																			<g>
																				<g>
																					<g>
																						<g>
																							<g>
																								<g>
																									<path class="st6" d="M493.68,174.7c0.02,0.6-0.47,1.12-1.1,1.15c-0.63,0.03-1.15-0.43-1.18-1.03
																										c-0.02-0.6,0.47-1.12,1.1-1.15C493.13,173.64,493.65,174.1,493.68,174.7z"/>
																								</g>
																							</g>
																						</g>
																					</g>
																				</g>
																			</g>
																		</g>
																	</g>
																</g>
															</g>
														</g>
														<g>
															<g>
																<g>
																	<g>
																		<g>
																			<g>
																				<g>
																					<g>
																						<g>
																							<g>
																								<g>
																									<g>
																										<path class="st6" d="M494.1,172.45c-0.14,0.15-1-0.49-2.23-0.49c-1.23-0.01-2.13,0.62-2.26,0.47
																											c-0.07-0.07,0.08-0.33,0.47-0.62c0.39-0.28,1.04-0.56,1.81-0.56c0.76,0,1.41,0.29,1.78,0.57
																											C494.04,172.11,494.17,172.38,494.1,172.45z"/>
																									</g>
																								</g>
																							</g>
																						</g>
																					</g>
																				</g>
																			</g>
																		</g>
																	</g>
																</g>
															</g>
														</g>
													</g>
													<g>
														<g>
															<g>
																<g>
																	<g>
																		<g>
																			<g>
																				<g>
																					<g>
																						<g>
																							<g>
																								<g>
																									<path class="st6" d="M482.16,174.7c0.02,0.6-0.47,1.12-1.1,1.15c-0.63,0.03-1.15-0.43-1.18-1.03
																										c-0.02-0.6,0.47-1.12,1.1-1.15C481.61,173.64,482.14,174.1,482.16,174.7z"/>
																								</g>
																							</g>
																						</g>
																					</g>
																				</g>
																			</g>
																		</g>
																	</g>
																</g>
															</g>
														</g>
														<g>
															<g>
																<g>
																	<g>
																		<g>
																			<g>
																				<g>
																					<g>
																						<g>
																							<g>
																								<g>
																									<g>
																										<path class="st6" d="M482.04,172.68c-0.14,0.15-1.01-0.49-2.23-0.49c-1.23-0.01-2.13,0.62-2.26,0.47
																											c-0.07-0.07,0.08-0.33,0.47-0.62c0.39-0.28,1.04-0.56,1.81-0.56c0.76,0,1.41,0.29,1.78,0.57
																											C481.98,172.34,482.11,172.61,482.04,172.68z"/>
																									</g>
																								</g>
																							</g>
																						</g>
																					</g>
																				</g>
																			</g>
																		</g>
																	</g>
																</g>
															</g>
														</g>
													</g>
													<g>
														<g>
															<g>
																<g>
																	<g>
																		<g>
																			<g>
																				<g>
																					<g>
																						<g>
																							<g>
																								<g>
																									<path class="st6" d="M486.49,181.78c-0.01-0.07,0.76-0.2,1.99-0.36c0.31-0.03,0.61-0.09,0.66-0.31
																										c0.07-0.23-0.06-0.56-0.21-0.93c-0.29-0.76-0.6-1.55-0.93-2.39c-1.29-3.4-2.22-6.19-2.08-6.24
																										c0.14-0.05,1.29,2.66,2.58,6.06c0.31,0.84,0.61,1.64,0.89,2.4c0.12,0.36,0.32,0.76,0.16,1.23
																										c-0.08,0.23-0.31,0.4-0.51,0.46c-0.2,0.06-0.38,0.06-0.53,0.07C487.26,181.84,486.49,181.85,486.49,181.78
																										z"/>
																								</g>
																							</g>
																						</g>
																					</g>
																				</g>
																			</g>
																		</g>
																	</g>
																</g>
															</g>
														</g>
													</g>
													<g>
														<g>
															<g>
																<g>
																	<g>
																		<g>
																			<g>
																				<g>
																					<g>
																						<g>
																							<g>
																								<g>
																									<path class="st6" d="M482.88,182.63c0.2-0.01,0.2,1.32,1.34,2.26c1.14,0.95,2.56,0.8,2.57,0.98
																										c0.02,0.08-0.32,0.26-0.92,0.28c-0.59,0.02-1.45-0.17-2.14-0.75c-0.7-0.58-0.99-1.35-1.04-1.9
																										C482.64,182.95,482.79,182.62,482.88,182.63z"/>
																								</g>
																							</g>
																						</g>
																					</g>
																				</g>
																			</g>
																		</g>
																	</g>
																</g>
															</g>
														</g>
													</g>
												</g>
											</g>
										</g>
										<g>
											<g>
												<g>
													<g>
														<g>
															<g>
																<g>
																	<g>
																		<g>
																			<g>
																				<g>
																					<path class="st6" d="M482.35,167.87c-0.12,0.33-1.35,0.18-2.79,0.35c-1.44,0.14-2.6,0.57-2.79,0.27
																						c-0.09-0.14,0.12-0.46,0.59-0.78c0.46-0.32,1.21-0.63,2.07-0.73c0.86-0.09,1.66,0.04,2.18,0.26
																						C482.14,167.45,482.41,167.71,482.35,167.87z"/>
																				</g>
																			</g>
																		</g>
																	</g>
																</g>
															</g>
														</g>
													</g>
												</g>
											</g>
										</g>
										<g>
											<g>
												<g>
													<g>
														<g>
															<g>
																<g>
																	<g>
																		<g>
																			<g>
																				<g>
																					<path class="st6" d="M493.64,168.9c-0.22,0.28-1.06-0.01-2.08-0.02c-1.02-0.05-1.88,0.19-2.07-0.1
																						c-0.09-0.14,0.05-0.42,0.42-0.68c0.37-0.26,0.99-0.48,1.69-0.46c0.7,0.02,1.3,0.27,1.66,0.56
																						C493.62,168.48,493.74,168.76,493.64,168.9z"/>
																				</g>
																			</g>
																		</g>
																	</g>
																</g>
															</g>
														</g>
													</g>
												</g>
											</g>
										</g>
									</g>
								</g>
								<g>
									<g>
										<g>
											<g>
												<g>
													<g>
														<g>
															<g>
																<g>
																	<g>
																		<g>
																			<g>
																				<path class="st13" d="M469.05,176.88c-0.14-0.06-5.49-1.62-5.31,3.84c0.17,5.46,5.62,4.16,5.62,4
																					C469.36,184.55,469.05,176.88,469.05,176.88z"/>
																			</g>
																		</g>
																	</g>
																</g>
															</g>
														</g>
													</g>
												</g>
											</g>
										</g>
									</g>
									<g>
										<g>
											<g>
												<g>
													<g>
														<g>
															<g>
																<g>
																	<g>
																		<g>
																			<g>
																				<g>
																					<path class="st17" d="M467.62,182.7c-0.02-0.02-0.09,0.07-0.25,0.15c-0.15,0.08-0.42,0.13-0.71,0.04
																						c-0.58-0.19-1.1-1.09-1.16-2.08c-0.03-0.5,0.06-0.97,0.22-1.37c0.15-0.4,0.4-0.69,0.69-0.75
																						c0.29-0.08,0.5,0.09,0.57,0.24c0.08,0.15,0.05,0.26,0.08,0.27c0.02,0.01,0.11-0.1,0.06-0.32
																						c-0.03-0.11-0.09-0.23-0.23-0.34c-0.13-0.1-0.33-0.15-0.53-0.12c-0.42,0.04-0.79,0.44-0.97,0.88
																						c-0.2,0.44-0.31,0.97-0.28,1.53c0.07,1.1,0.67,2.11,1.46,2.31c0.39,0.09,0.7-0.04,0.86-0.17
																						C467.62,182.83,467.64,182.71,467.62,182.7z"/>
																				</g>
																			</g>
																		</g>
																	</g>
																</g>
															</g>
														</g>
													</g>
												</g>
											</g>
										</g>
									</g>
								</g>
							</g>
						</g>
						<g>
							<g>
								<g>
									<g>
										<g>
											<g>
												<g>
													<path class="st6" d="M466.01,176.69c0.83-0.2,2.27,0.57,2.63,1.35c0.36,0.78,0.43,1.66,0.79,2.44
														c0.35,0.78,1.15,1.49,1.99,1.29c0.57-0.14,0.99-0.67,1.14-1.25c0.15-0.57,0.09-1.17,0.02-1.76
														c-0.32-2.55-0.86-5.08-0.96-7.64c-0.1-2.57,0.26-5.23,1.61-7.42c1.35-2.19,3.82-3.8,6.38-3.59
														c1.7,0.14,3.25,1.02,4.94,1.26c2,0.28,4.11-0.43,5.54-1.85c0.18-0.18,1.04-0.74,1.04-0.74c0-0.13-0.12-1.27-0.57-1.69
														c-3.34-3.09-9.37-3.95-13.78-2.84c-4.42,1.11-8.56,4.23-10.46,8.37C464.4,166.75,464.96,172.5,466.01,176.69"/>
												</g>
											</g>
										</g>
									</g>
								</g>
							</g>
						</g>
					</g>
				</g>
				<g>
					<g>
						<g>
							<g>
								<path class="st9" d="M495.56,163.21c0,0-20.94-6.74-30,11.38c0,0-1.35-4.53-1.35-6.96c0-1.62,0.97-11.29,10.92-14.33
									C475.12,153.3,490.11,147.58,495.56,163.21z"/>
							</g>
						</g>
					</g>
				</g>
				<g>
					<g>
						<g>
							<g>
								<path class="st6" d="M477.56,163.66c0.74,1.2,2.06,2.01,3.46,2.14c1.4,0.13,2.85-0.44,3.79-1.48
									c0.41,1.03,1.52,1.74,2.63,1.68c1.11-0.06,2.14-0.88,2.44-1.95c0.61,0.59,1.24,1.2,2.04,1.49c0.8,0.29,1.8,0.18,2.33-0.49
									c0.53-0.68,0.38-1.71-0.14-2.4c-0.52-0.69-1.33-1.1-2.12-1.43c-2.49-1.04-5.23-1.56-7.9-1.2c-2.67,0.36-5.26,1.66-6.93,3.77
									"/>
							</g>
						</g>
					</g>
				</g>
				<g>
					<g>
						<g>
							<g>
								<path class="st7" d="M495.56,163.21c0,0-2.38-2.84-6.66-3.02c-6.18-0.27-17.74,3.2-23.34,14.41c0,0-1.35-4.53-1.35-6.96
									c0-1.62,0.97-11.29,10.92-14.33C475.12,153.3,490.11,147.58,495.56,163.21z"/>
							</g>
						</g>
					</g>
				</g>
				<g>
					<g>
						<g>
							<path class="st7" d="M466.43,172.47c3.11-4.75,7.39-8.68,12.2-11.69c4.81-3.01,12.77-5.98,18.26-7.44
								c1.65-0.44,3.36-0.82,5.04-0.53c1.68,0.29,3.32,1.41,3.74,3.06c0.52,2.07-3.15,5.26-4.87,6.51c-1.72,1.26-5.24,3.1-5.24,3.1
								s0.05-3.84-6.09-4.63C481.12,159.79,466.43,172.47,466.43,172.47z"/>
						</g>
					</g>
				</g>
			</g>
			<g class="st16">
				<g>
					<g>
						<path d="M459.06,240.52c2.16,5.21,4.34,11.64,7.47,16.33c3.13,4.69,7.31,8.85,12.52,11.03c6.53,2.73,14.26,3.18,20.76,0.37
							c0.53-0.23,1.57-0.52,1.47-1.09c0,0-2.15-0.24-2.82-0.35c-13.14-2.22-14.56-3.84-20.85-8.81
							C473.69,254.91,465,245.54,459.06,240.52"/>
					</g>
				</g>
			</g>
			<g>
				<g>
					<g>
						<path class="st6" d="M500.82,278.46c0.03,0.01-0.14,0.46-0.55,1.22c-0.4,0.76-1.09,1.81-2.12,2.96
							c-2.04,2.32-5.66,4.83-10.17,6.22c-4.51,1.39-8.79,1.64-11.84,1.77c-1.53,0.06-2.77,0.07-3.62,0.07
							c-0.86,0-1.33-0.02-1.33-0.06c0-0.04,0.47-0.08,1.32-0.14c0.96-0.06,2.17-0.14,3.61-0.23c3.03-0.22,7.27-0.54,11.71-1.9
							c4.43-1.37,8-3.77,10.06-5.98C499.98,280.19,500.72,278.4,500.82,278.46z"/>
					</g>
				</g>
			</g>
			<g>
				<g>
					<g>
						<path class="st14" d="M557.39,403.21c-0.01,0-0.04-0.1-0.08-0.31c-0.05-0.24-0.11-0.54-0.18-0.92
							c-0.15-0.84-0.37-2.03-0.64-3.55c-0.54-3.12-1.32-7.57-2.27-13.06c-1.87-11.06-4.45-26.29-7.3-43.11
							c-1.27-7.61-2.48-14.9-3.59-21.55l0.26,0.2c-11.65,0.85-21.62,1.58-28.71,2.1c-3.5,0.24-6.29,0.43-8.24,0.56
							c-0.93,0.05-1.66,0.1-2.2,0.13c-0.23,0.01-0.42,0.02-0.57,0.02c-0.13,0-0.19,0-0.19-0.01c0-0.01,0.06-0.02,0.19-0.04
							c0.15-0.02,0.34-0.04,0.56-0.06c0.53-0.05,1.26-0.12,2.19-0.21c1.95-0.17,4.74-0.4,8.23-0.7c7.08-0.56,17.04-1.36,28.69-2.29
							l0.22-0.02l0.04,0.22c1.12,6.64,2.35,13.93,3.63,21.54c2.79,16.83,5.32,32.07,7.15,43.14c0.89,5.5,1.61,9.96,2.11,13.08
							c0.23,1.52,0.42,2.71,0.55,3.56c0.05,0.39,0.1,0.69,0.13,0.93C557.39,403.1,557.4,403.21,557.39,403.21z"/>
					</g>
				</g>
			</g>
			<g>
				<g>
					<g>
						<path class="st14" d="M550.3,313.54c0.09,0.12-1.65,1.62-3.64,3.64c-1.99,2.01-3.46,3.79-3.58,3.69
							c-0.11-0.08,1.19-2.02,3.21-4.06C548.3,314.77,550.22,313.43,550.3,313.54z"/>
					</g>
				</g>
			</g>
		</g>
		<g>
			<g>
				<g>
					<path class="st6" d="M489,203.17c0.02,0,0.06,0.11,0.12,0.33c0.07,0.22,0.13,0.55,0.19,0.98c0.1,0.86,0.05,2.16-0.49,3.64
						c-0.54,1.46-1.59,3.1-3.29,4.33c-1.69,1.23-4.03,1.87-6.42,1.71c-2.4-0.16-4.6-1.06-6.23-2.33c-1.65-1.26-2.78-2.78-3.54-4.13
						c-0.75-1.37-1.15-2.56-1.35-3.4c-0.1-0.42-0.17-0.75-0.2-0.97c-0.03-0.22-0.04-0.34-0.02-0.35c0.11-0.04,0.36,1.91,1.9,4.54
						c0.78,1.29,1.91,2.74,3.51,3.93c1.58,1.2,3.69,2.04,5.98,2.2c2.28,0.15,4.49-0.45,6.11-1.59c1.63-1.13,2.67-2.68,3.23-4.07
						c0.55-1.4,0.67-2.65,0.63-3.49C489.08,203.65,488.95,203.19,489,203.17z"/>
				</g>
			</g>
		</g>
		<g>
			<g>
				<path class="st18" d="M494.14,328.09"/>
			</g>
		</g>
		<g>
			<g>
				<g>
					<path class="st6" d="M503.11,246.84c-0.04,0-0.11-0.37-0.21-1.04c-0.11-0.79-0.25-1.74-0.4-2.86
						c-0.33-2.55-0.76-5.83-1.23-9.45c-0.45-3.7-0.81-7.05-1.03-9.48c-0.11-1.22-0.19-2.2-0.23-2.88c-0.04-0.68-0.05-1.06-0.01-1.06
						c0.04,0,0.11,0.37,0.21,1.04c0.11,0.79,0.24,1.74,0.39,2.86c0.32,2.55,0.73,5.83,1.18,9.46c0.45,3.69,0.85,7.04,1.08,9.47
						c0.12,1.21,0.2,2.2,0.24,2.88C503.14,246.46,503.14,246.84,503.11,246.84z"/>
				</g>
			</g>
		</g>
	</g>
</g>
</svg>
